<?xml version="1.0" encoding="UTF-8" standalone="no"?>
<!DOCTYPE svg PUBLIC "-//W3C//DTD SVG 1.1//EN" "http://www.w3.org/Graphics/SVG/1.1/DTD/svg11.dtd">
<svg width="350.0" height="350.0" viewBox="0 0 350.0 350.0" version="1.1" xmlns="http://www.w3.org/2000/svg">
<rect x="0" y="0" width="350.0" height="350.0" style="fill:white;"/>
<circle cx="175.0" cy="175.0" r="71.13544" fill="rgb(165,85,85)" />
<circle cx="105.74364" cy="96.71982" r="32.863354" fill="rgb(195,1,67)" />
<circle cx="72.837166" cy="191.65173" r="31.819805" fill="rgb(117,243,53)" />
<circle cx="185.4731" cy="276.45978" r="30.335625" fill="rgb(39,97,27)" />
<circle cx="123.36796" cy="263.69516" r="30.0" fill="rgb(39,125,37)" />
<circle cx="164.00667" cy="76.76448" r="23.85896" fill="rgb(5,251,43)" />
<circle cx="260.5617" cy="215.56453" r="22.994564" fill="rgb(183,59,133)" />
<circle cx="268.39703" cy="163.32861" r="22.449945" fill="rgb(183,171,173)" />
<circle cx="213.0101" cy="83.20565" r="22.299103" fill="rgb(183,233,77)" />
<circle cx="247.0744" cy="115.35031" r="21.737064" fill="rgb(105,69,13)" />
<circle cx="237.97916" cy="254.51132" r="20.838665" fill="rgb(27,57,103)" />
<circle cx="64.13852" cy="139.02406" r="18.973667" fill="rgb(127,131,93)" />
<circle cx="75.36504" cy="245.24557" r="18.854708" fill="rgb(127,221,169)" />
<circle cx="289.53998" cy="124.329895" r="17.557049" fill="rgb(49,17,203)" />
<circle cx="299.39142" cy="193.8678" r="17.036724" fill="rgb(49,29,209)" />
<circle cx="196.23663" cy="46.19951" r="16.363068" fill="rgb(227,187,7)" />
<circle cx="131.55904" cy="52.435295" r="15.803481" fill="rgb(149,237,219)" />
<circle cx="275.21014" cy="251.90402" r="15.51612" fill="rgb(149,205,125)" />
<circle cx="250.51964" cy="75.714325" r="15.074813" fill="rgb(149,47,221)" />
<circle cx="305.372" cy="155.654" r="14.387495" fill="rgb(71,241,61)" />
<circle cx="241.20393" cy="290.34793" r="14.387495" fill="rgb(71,113,95)" />
<circle cx="295.8778" cy="228.93958" r="13.66565" fill="rgb(249,229,123)" />
<circle cx="152.11935" cy="306.71716" r="12.990381" fill="rgb(171,83,63)" />
<circle cx="93.46326" cy="150.58392" r="11.905881" fill="rgb(93,89,183)" />
<circle cx="105.05981" cy="221.94022" r="11.811011" fill="rgb(93,1,89)" />
<circle cx="279.41537" cy="95.40131" r="11.61895" fill="rgb(93,5,245)" />
<circle cx="40.664825" cy="159.71669" r="11.61895" fill="rgb(93,51,117)" />
<circle cx="59.66767" cy="103.603775" r="11.022704" fill="rgb(93,253,101)" />
<circle cx="156.70096" cy="39.70706" r="10.5" fill="rgb(15,139,229)" />
<circle cx="224.49927" cy="47.223892" r="10.283482" fill="rgb(15,67,85)" />
<circle cx="261.57407" cy="275.71146" r="9.836158" fill="rgb(193,137,205)" />
<circle cx="218.4141" cy="300.91122" r="9.486834" fill="rgb(193,111,107)" />
<circle cx="84.568924" cy="274.23248" r="9.3674965" fill="rgb(193,155,127)" />
<circle cx="123.24258" cy="305.27408" r="9.0" fill="rgb(193,125,241)" />
<circle cx="50.455048" cy="226.30338" r="8.87412" fill="rgb(115,63,223)" />
<circle cx="174.97871" cy="314.80103" r="8.746428" fill="rgb(115,7,175)" />
<circle cx="99.57326" cy="54.23552" r="8.746428" fill="rgb(115,45,119)" />
<circle cx="245.37749" cy="49.994354" r="8.746428" fill="rgb(115,169,241)" />
<circle cx="274.4997" cy="71.31015" r="8.485281" fill="rgb(115,127,165)" />
<circle cx="319.51404" cy="176.88295" r="8.351646" fill="rgb(115,53,163)" />
<circle cx="208.91647" cy="316.851" r="8.351646" fill="rgb(115,99,75)" />
<circle cx="66.109535" cy="83.750275" r="8.215838" fill="rgb(115,31,77)" />
<circle cx="101.98308" cy="302.12857" r="8.077747" fill="rgb(115,201,7)" />
<circle cx="65.953705" cy="273.46072" r="8.077747" fill="rgb(115,209,49)" />
<circle cx="86.50925" cy="292.04483" r="7.937254" fill="rgb(37,55,251)" />
<circle cx="44.623306" cy="243.27625" r="7.7942286" fill="rgb(37,107,13)" />
<circle cx="176.2489" cy="32.054245" r="7.5" fill="rgb(37,163,195)" />
<circle cx="33.929123" cy="183.27043" r="7.1937475" fill="rgb(37,17,197)" />
<circle cx="43.48799" cy="122.096054" r="7.1937475" fill="rgb(37,29,47)" />
<circle cx="279.39362" cy="276.03925" r="7.1937475" fill="rgb(37,5,27)" />
<circle cx="190.83427" cy="320.11404" r="7.1937475" fill="rgb(37,231,131)" />
<circle cx="33.93608" cy="217.61884" r="7.1937475" fill="rgb(37,17,33)" />
<circle cx="29.574158" cy="199.57388" r="7.0356236" fill="rgb(37,217,165)" />
<circle cx="314.72284" cy="212.92479" r="6.8738637" fill="rgb(215,175,155)" />
<circle cx="32.57489" cy="135.02594" r="6.8738637" fill="rgb(215,195,37)" />
<circle cx="75.95768" cy="64.35852" r="6.8738637" fill="rgb(215,221,131)" />
<circle cx="141.59622" cy="29.793076" r="6.8738637" fill="rgb(215,249,217)" />
<circle cx="216.01714" cy="31.233139" r="6.7082043" fill="rgb(215,211,117)" />
<circle cx="266.41354" cy="56.222656" r="6.7082043" fill="rgb(215,15,19)" />
<circle cx="293.34235" cy="82.61392" r="6.3639607" fill="rgb(215,73,255)" />
<circle cx="297.4266" cy="99.26366" r="6.184658" fill="rgb(215,129,45)" />
<circle cx="312.68524" cy="132.10873" r="6.184658" fill="rgb(215,19,59)" />
<circle cx="308.7611" cy="106.408035" r="6.0" fill="rgb(215,219,79)" />
<circle cx="321.88547" cy="141.87326" r="6.0" fill="rgb(215,209,249)" />
<circle cx="324.11478" cy="198.48373" r="6.0" fill="rgb(215,187,87)" />
<circle cx="317.2247" cy="226.14621" r="6.0" fill="rgb(215,153,223)" />
<circle cx="224.32668" cy="278.0216" r="5.809475" fill="rgb(137,67,183)" />
<circle cx="309.78162" cy="243.67184" r="5.809475" fill="rgb(137,41,13)" />
<circle cx="54.340927" cy="259.04785" r="5.6124864" fill="rgb(137,119,237)" />
<circle cx="159.17729" cy="250.53609" r="5.408327" fill="rgb(137,117,47)" />
<circle cx="187.15836" cy="95.66355" r="5.408327" fill="rgb(137,253,245)" />
<circle cx="27.358017" cy="171.80849" r="5.408327" fill="rgb(137,61,29)" />
<circle cx="42.45288" cy="108.89364" r="5.408327" fill="rgb(137,207,235)" />
<circle cx="300.18695" cy="260.13678" r="5.408327" fill="rgb(137,107,59)" />
<circle cx="106.61421" cy="135.3168" r="5.196152" fill="rgb(137,79,37)" />
<circle cx="325.0095" cy="160.58353" r="5.196152" fill="rgb(137,9,195)" />
<circle cx="275.16974" cy="288.8527" r="5.196152" fill="rgb(137,205,195)" />
<circle cx="260.13794" cy="300.64307" r="5.196152" fill="rgb(137,59,107)" />
<circle cx="243.72989" cy="310.45892" r="5.196152" fill="rgb(137,13,119)" />
<circle cx="249.51329" cy="142.55463" r="4.9749374" fill="rgb(59,225,71)" />
<circle cx="136.05673" cy="316.07706" r="4.9749374" fill="rgb(59,115,75)" />
<circle cx="114.98483" cy="38.828217" r="4.9749374" fill="rgb(59,191,151)" />
<circle cx="226.20377" cy="318.1411" r="4.9749374" fill="rgb(59,223,231)" />
<circle cx="160.15926" cy="326.74072" r="4.9749374" fill="rgb(59,195,87)" />
<circle cx="73.187996" cy="289.33426" r="4.9749374" fill="rgb(59,65,17)" />
<circle cx="33.718628" cy="235.10669" r="4.9749374" fill="rgb(59,17,157)" />
<circle cx="214.91455" cy="240.1672" r="4.743417" fill="rgb(59,55,35)" />
<circle cx="171.6633" cy="44.692215" r="4.743417" fill="rgb(59,29,107)" />
<circle cx="229.72243" cy="227.98051" r="4.5" fill="rgb(59,201,45)" />
<circle cx="255.83942" cy="187.74403" r="4.5" fill="rgb(59,181,253)" />
<circle cx="266.31946" cy="133.98135" r="4.5" fill="rgb(59,15,137)" />
<circle cx="206.46005" cy="244.78162" r="4.2426405" fill="rgb(59,199,91)" />
<circle cx="147.50406" cy="100.13067" r="4.2426405" fill="rgb(59,205,123)" />
<circle cx="86.954865" cy="132.32858" r="4.2426405" fill="rgb(59,55,59)" />
<circle cx="188.2579" cy="26.275208" r="4.2426405" fill="rgb(59,75,239)" />
<circle cx="21.734085" cy="188.40266" r="4.2426405" fill="rgb(59,105,75)" />
<circle cx="21.757431" cy="159.34805" r="4.2426405" fill="rgb(59,105,117)" />
<circle cx="274.62134" cy="189.53316" r="3.968627" fill="rgb(237,127,153)" />
<circle cx="235.24332" cy="58.83783" r="3.968627" fill="rgb(237,157,175)" />
<circle cx="179.34317" cy="327.2768" r="3.968627" fill="rgb(237,141,165)" />
<circle cx="169.74475" cy="327.3111" r="3.968627" fill="rgb(237,129,165)" />
<circle cx="150.62476" cy="325.56744" r="3.968627" fill="rgb(237,183,9)" />
<circle cx="222.7091" cy="234.53598" r="3.6742349" fill="rgb(237,167,79)" />
<circle cx="268.49423" cy="82.9985" r="3.6742349" fill="rgb(237,171,255)" />
<circle cx="106.559265" cy="42.933" r="3.6742349" fill="rgb(237,79,207)" />
<circle cx="267.8412" cy="294.98352" r="3.6742349" fill="rgb(237,93,151)" />
<circle cx="261.90787" cy="94.25017" r="3.3541021" fill="rgb(237,137,167)" />
<circle cx="288.53647" cy="212.92432" r="3.3541021" fill="rgb(237,195,155)" />
<circle cx="143.409" cy="292.026" r="3.3541021" fill="rgb(237,149,251)" />
<circle cx="234.88672" cy="307.77997" r="3.3541021" fill="rgb(237,79,141)" />
<circle cx="294.62796" cy="267.88852" r="3.3541021" fill="rgb(237,151,93)" />
<circle cx="252.0903" cy="305.8085" r="3.3541021" fill="rgb(237,203,241)" />
<circle cx="141.17914" cy="323.79544" r="3.3541021" fill="rgb(237,249,109)" />
<circle cx="122.70444" cy="318.48373" r="3.3541021" fill="rgb(237,47,231)" />
<circle cx="220.10754" cy="108.07917" r="3.0" fill="rgb(237,11,235)" />
<circle cx="218.19716" cy="287.58212" r="3.0" fill="rgb(237,111,117)" />
<circle cx="135.71036" cy="302.9178" r="3.0" fill="rgb(237,37,7)" />
<circle cx="325.2348" cy="189.04272" r="3.0" fill="rgb(237,9,153)" />
<circle cx="313.7801" cy="235.02449" r="3.0" fill="rgb(237,97,157)" />
<circle cx="305.24472" cy="252.05377" r="3.0" fill="rgb(237,241,203)" />
<circle cx="207.30249" cy="108.11448" r="2.598076" fill="rgb(159,21,235)" />
<circle cx="215.52078" cy="112.59867" r="2.598076" fill="rgb(159,133,35)" />
<circle cx="241.06345" cy="139.69084" r="2.598076" fill="rgb(159,113,93)" />
<circle cx="120.68465" cy="230.62143" r="2.598076" fill="rgb(159,147,23)" />
<circle cx="175.65651" cy="101.166595" r="2.1213202" fill="rgb(159,85,201)" />
<circle cx="194.11151" cy="103.41906" r="2.1213202" fill="rgb(159,31,101)" />
<circle cx="140.15602" cy="110.47464" r="1.5" fill="rgb(81,171,135)" />
</svg>
