<?xml version="1.0" encoding="UTF-8" standalone="no"?>
<!DOCTYPE svg PUBLIC "-//W3C//DTD SVG 1.1//EN" "http://www.w3.org/Graphics/SVG/1.1/DTD/svg11.dtd">
<svg width="600" height="600" viewBox="0 0 600 600" version="1.1" xmlns="http://www.w3.org/2000/svg">
<rect x="0" y="0" width="600" height="600" style="fill:white;"/>
<circle cx="300.0" cy="300.0" r="60.1" fill="rgb(0,255,165)" />
<circle cx="300.196" cy="300.03973" r="53.0" fill="rgb(211,222,45)" />
<circle cx="300.56445" cy="300.1955" r="50.0" fill="rgb(211,22,245)" />
<circle cx="301.05966" cy="300.53427" r="45.9" fill="rgb(2,22,45)" />
<circle cx="301.61703" cy="301.10815" r="45.0" fill="rgb(2,22,45)" />
<circle cx="302.15735" cy="301.94962" r="30.3" fill="rgb(51,102,255)" />
<circle cx="302.59216" cy="303.06805" r="28.5" fill="rgb(51,102,255)" />
<circle cx="302.8301" cy="304.4477" r="27.4" fill="rgb(51,102,255)" />
<circle cx="302.7834" cy="306.047" r="27.1" fill="rgb(51,102,255)" />
<circle cx="302.37442" cy="307.79993" r="26.0" fill="rgb(15,142,55)" />
<circle cx="301.5421" cy="309.61853" r="24.3" fill="rgb(15,142,55)" />
<circle cx="300.2474" cy="311.39722" r="21.0" fill="rgb(2,22,45)" />
<circle cx="298.47766" cy="313.01834" r="20.8" fill="rgb(2,22,45)" />
<circle cx="296.24976" cy="314.35864" r="18.7" fill="rgb(2,22,45)" />
<circle cx="293.61154" cy="315.2966" r="17.9" fill="rgb(2,22,45)" />
<circle cx="290.64157" cy="315.71997" r="16.9" fill="rgb(0,22,217)" />
<circle cx="287.44702" cy="315.53317" r="16.1" fill="rgb(0,22,217)" />
<circle cx="284.1599" cy="314.66434" r="15.7" fill="rgb(0,22,217)" />
<circle cx="280.93158" cy="313.07126" r="15.1" fill="rgb(0,22,217)" />
<circle cx="277.9259" cy="310.7462" r="14.2" fill="rgb(0,22,217)" />
<circle cx="275.31134" cy="307.71896" r="14.2" fill="rgb(0,22,217)" />
<circle cx="273.25226" cy="304.05835" r="13.3" fill="rgb(0,22,217)" />
<circle cx="271.9" cy="299.8713" r="12.5" fill="rgb(0,22,217)" />
<circle cx="271.3841" cy="295.30032" r="11.3" fill="rgb(222,111,45)" />
<circle cx="271.80408" cy="290.51874" r="11.2" fill="rgb(222,111,45)" />
<circle cx="273.22238" cy="285.72412" r="11.0" fill="rgb(222,111,45)" />
<circle cx="275.65866" cy="281.13016" r="11.0" fill="rgb(222,111,45)" />
<circle cx="279.086" cy="276.9572" r="10.4" fill="rgb(222,111,45)" />
<circle cx="283.42917" cy="273.42212" r="9.9" fill="rgb(222,111,45)" />
<circle cx="288.5652" cy="270.72742" r="9.7" fill="rgb(222,111,45)" />
<circle cx="294.3262" cy="269.0509" r="9.3" fill="rgb(222,111,45)" />
<circle cx="300.50476" cy="268.53574" r="9.0" fill="rgb(222,111,45)" />
<circle cx="306.86115" cy="269.28165" r="8.9" fill="rgb(222,111,45)" />
<circle cx="313.1327" cy="271.3378" r="8.6" fill="rgb(222,111,45)" />
<circle cx="319.0446" cy="274.69775" r="8.5" fill="rgb(222,111,45)" />
<circle cx="324.3219" cy="279.29663" r="8.4" fill="rgb(222,111,45)" />
<circle cx="328.70206" cy="285.01102" r="8.4" fill="rgb(222,111,45)" />
<circle cx="331.94733" cy="291.66144" r="8.4" fill="rgb(222,111,45)" />
<circle cx="333.85693" cy="299.0176" r="8.2" fill="rgb(222,111,45)" />
<circle cx="334.2778" cy="306.80624" r="8.1" fill="rgb(222,111,45)" />
<circle cx="333.11383" cy="314.7211" r="8.1" fill="rgb(222,111,45)" />
<circle cx="330.3328" cy="322.4351" r="8.0" fill="rgb(222,111,45)" />
<circle cx="325.9708" cy="329.61374" r="7.9" fill="rgb(222,111,45)" />
<circle cx="320.13382" cy="335.92957" r="7.9" fill="rgb(222,111,45)" />
<circle cx="312.99622" cy="341.07687" r="7.8" fill="rgb(222,111,45)" />
<circle cx="304.79605" cy="344.78598" r="7.7" fill="rgb(222,111,45)" />
<circle cx="295.8275" cy="346.8366" r="7.5" fill="rgb(222,111,45)" />
<circle cx="286.43042" cy="347.06955" r="7.3" fill="rgb(222,111,45)" />
<circle cx="276.97742" cy="345.39606" r="7.3" fill="rgb(222,111,45)" />
<circle cx="267.85922" cy="341.8046" r="7.3" fill="rgb(222,111,45)" />
<circle cx="259.46848" cy="336.36444" r="7.3" fill="rgb(222,111,45)" />
<circle cx="252.18294" cy="329.22577" r="7.3" fill="rgb(222,111,45)" />
<circle cx="246.34866" cy="320.6164" r="7.2" fill="rgb(222,111,45)" />
<circle cx="242.26402" cy="310.835" r="7.1" fill="rgb(222,111,45)" />
<circle cx="240.1652" cy="300.2409" r="7.1" fill="rgb(222,111,45)" />
<circle cx="240.21382" cy="289.24103" r="7.1" fill="rgb(222,111,45)" />
<circle cx="242.48741" cy="278.27423" r="7.1" fill="rgb(222,111,45)" />
<circle cx="246.97314" cy="267.79385" r="7.0" fill="rgb(222,111,45)" />
<circle cx="253.56525" cy="258.249" r="7.0" fill="rgb(222,111,45)" />
<circle cx="262.06628" cy="250.06534" r="6.8" fill="rgb(222,111,45)" />
<circle cx="272.19247" cy="243.6264" r="6.7" fill="rgb(222,111,45)" />
<circle cx="283.58276" cy="239.25594" r="6.7" fill="rgb(222,111,45)" />
<circle cx="295.81152" cy="237.20236" r="6.6" fill="rgb(222,111,45)" />
<circle cx="308.4044" cy="237.62592" r="6.6" fill="rgb(222,111,45)" />
<circle cx="320.85666" cy="240.58914" r="6.6" fill="rgb(222,111,45)" />
<circle cx="332.6535" cy="246.05122" r="6.6" fill="rgb(222,111,45)" />
<circle cx="343.29123" cy="253.8665" r="6.5" fill="rgb(222,111,45)" />
<circle cx="352.2987" cy="263.78745" r="6.5" fill="rgb(222,111,45)" />
<circle cx="359.25797" cy="275.472" r="6.4" fill="rgb(222,111,45)" />
<circle cx="363.8233" cy="288.49493" r="6.3" fill="rgb(222,111,45)" />
<circle cx="365.73773" cy="302.3634" r="6.3" fill="rgb(222,111,45)" />
<circle cx="364.84622" cy="316.53537" r="6.3" fill="rgb(222,111,45)" />
<circle cx="361.10498" cy="330.44086" r="6.3" fill="rgb(222,111,45)" />
<circle cx="354.58643" cy="343.50485" r="6.3" fill="rgb(222,111,45)" />
<circle cx="345.4793" cy="355.17105" r="6.2" fill="rgb(222,111,45)" />
<circle cx="334.0841" cy="364.92548" r="6.2" fill="rgb(222,111,45)" />
<circle cx="320.80338" cy="372.31885" r="6.2" fill="rgb(222,111,45)" />
<circle cx="306.12796" cy="376.987" r="6.2" fill="rgb(222,111,45)" />
<circle cx="290.6188" cy="378.66812" r="6.2" fill="rgb(222,111,45)" />
<circle cx="274.88568" cy="377.21616" r="6.1" fill="rgb(222,111,45)" />
<circle cx="259.56308" cy="372.60986" r="6.1" fill="rgb(222,111,45)" />
<circle cx="245.28477" cy="364.9568" r="6.1" fill="rgb(222,111,45)" />
<circle cx="232.65753" cy="354.49197" r="6.1" fill="rgb(222,111,45)" />
<circle cx="222.23547" cy="341.57144" r="6.1" fill="rgb(222,111,45)" />
<circle cx="214.49596" cy="326.6604" r="6.1" fill="rgb(222,111,45)" />
<circle cx="209.81805" cy="310.31668" r="6.1" fill="rgb(222,111,45)" />
<circle cx="208.46468" cy="293.17" r="6.0" fill="rgb(12,222,45)" />
<circle cx="210.56898" cy="275.89774" r="6.0" fill="rgb(12,222,45)" />
<circle cx="216.12598" cy="259.19806" r="5.9" fill="rgb(12,222,45)" />
<circle cx="224.98952" cy="243.76183" r="5.9" fill="rgb(12,222,45)" />
<circle cx="236.87517" cy="230.24402" r="5.9" fill="rgb(12,222,45)" />
<circle cx="251.36874" cy="219.23602" r="5.8" fill="rgb(12,222,45)" />
<circle cx="267.9405" cy="211.23997" r="5.8" fill="rgb(12,222,45)" />
<circle cx="285.9643" cy="206.64624" r="5.8" fill="rgb(12,222,45)" />
<circle cx="304.7412" cy="205.71495" r="5.8" fill="rgb(12,222,45)" />
<circle cx="323.5266" cy="208.56262" r="5.8" fill="rgb(12,222,45)" />
<circle cx="341.55963" cy="215.15428" r="5.8" fill="rgb(12,222,45)" />
<circle cx="358.0941" cy="225.30179" r="5.7" fill="rgb(12,222,45)" />
<circle cx="372.42923" cy="238.6683" r="5.7" fill="rgb(12,222,45)" />
<circle cx="383.93936" cy="254.77908" r="5.7" fill="rgb(12,222,45)" />
<circle cx="392.10092" cy="273.03802" r="5.7" fill="rgb(12,222,45)" />
<circle cx="396.51602" cy="292.74963" r="5.7" fill="rgb(12,222,45)" />
<circle cx="396.93106" cy="313.14542" r="5.6" fill="rgb(12,222,45)" />
<circle cx="393.25006" cy="333.41388" r="5.6" fill="rgb(12,222,45)" />
<circle cx="385.5416" cy="352.7328" r="5.6" fill="rgb(12,222,45)" />
<circle cx="374.03915" cy="370.3025" r="5.6" fill="rgb(12,222,45)" />
<circle cx="359.1348" cy="385.379" r="5.5" fill="rgb(2,1,255)" />
<circle cx="341.36624" cy="397.3054" r="5.5" fill="rgb(2,1,255)" />
<circle cx="321.39755" cy="405.5402" r="5.5" fill="rgb(2,1,255)" />
<circle cx="299.99454" cy="409.68167" r="5.5" fill="rgb(2,1,255)" />
<circle cx="277.9954" cy="409.4867" r="5.5" fill="rgb(2,1,255)" />
<circle cx="256.27783" cy="404.88354" r="5.5" fill="rgb(2,1,255)" />
<circle cx="235.72418" cy="395.97803" r="5.5" fill="rgb(2,1,255)" />
<circle cx="217.18544" cy="383.05225" r="5.5" fill="rgb(2,1,255)" />
<circle cx="201.44615" cy="366.55634" r="5.4" fill="rgb(2,1,255)" />
<circle cx="189.19128" cy="347.09308" r="5.4" fill="rgb(2,1,255)" />
<circle cx="180.97665" cy="325.39606" r="5.4" fill="rgb(2,1,255)" />
<circle cx="177.20407" cy="302.30215" r="5.4" fill="rgb(2,1,255)" />
<circle cx="178.10237" cy="278.71924" r="5.4" fill="rgb(2,1,255)" />
<circle cx="183.71515" cy="255.59052" r="5.4" fill="rgb(2,1,255)" />
<circle cx="193.89587" cy="233.85681" r="5.3" fill="rgb(2,1,255)" />
<circle cx="208.31062" cy="214.41829" r="5.3" fill="rgb(2,1,255)" />
<circle cx="226.44856" cy="198.09724" r="5.3" fill="rgb(2,1,255)" />
<circle cx="247.63974" cy="185.60342" r="5.3" fill="rgb(2,1,255)" />
<circle cx="271.07968" cy="177.50339" r="5.2" fill="rgb(2,1,255)" />
<circle cx="295.85986" cy="174.19516" r="5.2" fill="rgb(2,1,255)" />
<circle cx="321.00287" cy="175.8894" r="5.1" fill="rgb(2,1,255)" />
</svg>
