<?xml version="1.0" encoding="UTF-8" standalone="no"?>
<!DOCTYPE svg PUBLIC "-//W3C//DTD SVG 1.1//EN" "http://www.w3.org/Graphics/SVG/1.1/DTD/svg11.dtd">
<svg width="350.0" height="350.0" viewBox="0 0 350.0 350.0" version="1.1" xmlns="http://www.w3.org/2000/svg">
<rect x="0" y="0" width="350.0" height="350.0" style="fill:white;"/>
<circle cx="175.0" cy="175.0" r="75.8778" fill="rgb(85,221,85)" />
<text x="175.0" y="175.0" style="font-family:Verdana;font-weight:bold; font-size:7;" text-anchor="middle" fill="white"><tspan>Other..</tspan><tspan dx="-25" dy="10">[2249]</tspan></text><circle cx="165.32013" cy="63.981636" r="35.054245" fill="rgb(73,173,53)" />
<text x="165.32013" y="63.981636" style="font-family:Verdana;font-weight:bold; font-size:7;" text-anchor="middle" fill="white"><tspan>Pasta..</tspan><tspan dx="-25" dy="10">[480]</tspan></text><circle cx="71.90185" cy="135.74216" r="33.941128" fill="rgb(165,17,37)" />
<text x="71.90185" y="135.74216" style="font-family:Verdana;font-weight:bold; font-size:7;" text-anchor="middle" fill="white"><tspan>Rice..</tspan><tspan dx="-24" dy="10">[450]</tspan></text><circle cx="136.01538" cy="276.52393" r="32.357998" fill="rgb(115,195,27)" />
<text x="136.01538" y="276.52393" style="font-family:Verdana;font-weight:bold; font-size:7;" text-anchor="middle" fill="white"><tspan>Pizza..</tspan><tspan dx="-25" dy="10">[409]</tspan></text><circle cx="84.010605" cy="235.6811" r="32.0" fill="rgb(155,195,157)" />
<text x="84.010605" y="235.6811" style="font-family:Verdana;font-weight:bold; font-size:7;" text-anchor="middle" fill="white"><tspan>Chick..</tspan><tspan dx="-25" dy="10">[400]</tspan></text><circle cx="199.03035" cy="273.9886" r="25.449558" fill="rgb(165,161,49)" />
<text x="199.03035" y="273.9886" style="font-family:Verdana;font-weight:bold; font-size:7;" text-anchor="middle" fill="white"><tspan>Meat..</tspan><tspan dx="-24" dy="10">[253]</tspan></text><circle cx="268.68875" cy="212.49095" r="24.527536" fill="rgb(171,83,155)" />
<text x="268.68875" y="212.49095" style="font-family:Verdana;font-weight:bold; font-size:7;" text-anchor="middle" fill="white"><tspan>Dontk..</tspan><tspan dx="-25" dy="10">[235]</tspan></text><circle cx="273.74197" cy="157.09837" r="23.946608" fill="rgb(49,5,217)" />
<text x="273.74197" y="157.09837" style="font-family:Verdana;font-weight:bold; font-size:7;" text-anchor="middle" fill="white"><tspan>Veget..</tspan><tspan dx="-25" dy="10">[224]</tspan></text><circle cx="224.21985" cy="81.42794" r="23.785711" fill="rgb(67,5,177)" />
<text x="224.21985" y="81.42794" style="font-family:Verdana;font-weight:bold; font-size:7;" text-anchor="middle" fill="white"><tspan>Steak..</tspan><tspan dx="-25" dy="10">[221]</tspan></text><circle cx="112.88543" cy="90.83035" r="23.186203" fill="rgb(35,5,111)" />
<text x="112.88543" y="90.83035" style="font-family:Verdana;font-weight:bold; font-size:7;" text-anchor="middle" fill="white"><tspan>Chine..</tspan><tspan dx="-25" dy="10">[210]</tspan></text><circle cx="260.25424" cy="111.71515" r="22.227911" fill="rgb(59,183,213)" />
<text x="260.25424" y="111.71515" style="font-family:Verdana;font-weight:bold; font-size:7;" text-anchor="middle" fill="white"><tspan>Lasag..</tspan><tspan dx="-25" dy="10">[193]</tspan></text><circle cx="248.63025" cy="253.5057" r="20.238577" fill="rgb(147,27,25)" />
<text x="248.63025" y="253.5057" style="font-family:Verdana;font-weight:bold; font-size:7;" text-anchor="middle" fill="white"><tspan>Fish..</tspan><tspan dx="-24" dy="10">[160]</tspan></text><circle cx="53.27928" cy="188.02403" r="20.111689" fill="rgb(41,27,75)" />
<text x="53.27928" y="188.02403" style="font-family:Verdana;font-weight:bold; font-size:7;" text-anchor="middle" fill="white"><tspan>Itali..</tspan><tspan dx="-25" dy="10">[158]</tspan></text><circle cx="306.37994" cy="188.26079" r="18.72752" fill="rgb(63,127,75)" />
<text x="306.37994" y="188.26079" style="font-family:Verdana;font-weight:bold; font-size:7;" text-anchor="middle" fill="white"><tspan>Seafo..</tspan><tspan dx="-25" dy="10">[137]</tspan></text><circle cx="301.1385" cy="119.48256" r="18.172506" fill="rgb(185,127,69)" />
<text x="301.1385" y="119.48256" style="font-family:Verdana;font-weight:bold; font-size:7;" text-anchor="middle" fill="white"><tspan>Mexic..</tspan><tspan dx="-25" dy="10">[129]</tspan></text><circle cx="290.0924" cy="252.6253" r="17.45394" fill="rgb(95,49,203)" />
<text x="290.0924" y="252.6253" style="font-family:Verdana;font-weight:bold; font-size:7;" text-anchor="middle" fill="white"><tspan>Spagh..</tspan><tspan dx="-25" dy="10">[119]</tspan></text><circle cx="240.8777" cy="290.53784" r="16.857046" fill="rgb(35,227,95)" />
<text x="240.8777" y="290.53784" style="font-family:Verdana;font-weight:bold; font-size:7;" text-anchor="middle" fill="white"><tspan>Choco..</tspan><tspan dx="-25" dy="10">[111]</tspan></text><circle cx="264.3512" cy="70.66311" r="16.550528" fill="rgb(115,227,87)" />
<text x="264.3512" y="70.66311" style="font-family:Verdana;font-weight:bold; font-size:7;" text-anchor="middle" fill="white"><tspan>Salad..</tspan><tspan dx="-25" dy="10">[107]</tspan></text><circle cx="186.36356" cy="314.2566" r="16.079802" fill="rgb(175,227,175)" />
<text x="186.36356" y="314.2566" style="font-family:Verdana;font-weight:bold; font-size:7;" text-anchor="middle" fill="white"><tspan>India..</tspan><tspan dx="-25" dy="10">[101]</tspan></text><circle cx="66.316925" cy="83.49982" r="15.346662" fill="rgb(31,149,77)" />
<text x="66.316925" y="83.49982" style="font-family:Verdana;font-weight:bold; font-size:7;" text-anchor="middle" fill="white"><tspan>Curry..</tspan><tspan dx="-25" dy="10">[92]</tspan></text><circle cx="102.391716" cy="52.493202" r="15.346662" fill="rgb(23,149,219)" />
<text x="102.391716" y="52.493202" style="font-family:Verdana;font-weight:bold; font-size:7;" text-anchor="middle" fill="white"><tspan>Homem..</tspan><tspan dx="-25" dy="10">[92]</tspan></text><circle cx="210.28336" cy="36.223663" r="14.576694" fill="rgb(255,251,71)" /><circle cx="90.386475" cy="287.09833" r="13.856407" fill="rgb(111,117,249)" /><circle cx="311.84607" cy="156.46599" r="12.699607" fill="rgb(197,139,171)" /><circle cx="304.2511" cy="225.03958" r="12.5984125" fill="rgb(163,145,171)" /><circle cx="240.33035" cy="47.32881" r="12.393547" fill="rgb(35,85,171)" /><circle cx="289.5423" cy="87.955475" r="12.393547" fill="rgb(17,133,171)" /><circle cx="216.94543" cy="308.0397" r="11.757551" fill="rgb(211,219,93)" /><circle cx="85.25488" cy="189.71608" r="11.2" fill="rgb(233,153,93)" /><circle cx="40.584305" cy="217.79388" r="10.969048" fill="rgb(51,33,15)" /><circle cx="270.12735" cy="276.4149" r="10.491901" fill="rgb(71,27,15)" /><circle cx="34.04065" cy="163.16344" r="10.119288" fill="rgb(95,173,15)" /><circle cx="155.84758" cy="319.95563" r="9.991997" fill="rgb(61,53,193)" /><circle cx="127.84359" cy="33.76085" r="9.6" fill="rgb(181,17,193)" /><circle cx="131.61829" cy="321.3615" r="9.465728" fill="rgb(237,209,193)" /><circle cx="107.68191" cy="312.19788" r="9.329523" fill="rgb(157,19,193)" /><circle cx="65.971245" cy="282.5664" r="9.329523" fill="rgb(209,239,193)" /><circle cx="49.38241" cy="262.9176" r="9.329523" fill="rgb(241,215,193)" /><circle cx="36.298416" cy="240.74728" r="9.050967" fill="rgb(251,35,193)" /><circle cx="23.25418" cy="199.90134" r="8.908423" fill="rgb(5,165,115)" /><circle cx="24.869537" cy="139.95105" r="8.908423" fill="rgb(83,93,115)" /><circle cx="32.688812" cy="115.276146" r="8.763561" fill="rgb(195,13,115)" /><circle cx="72.30551" cy="59.19094" r="8.616263" fill="rgb(243,253,115)" /><circle cx="149.41515" cy="21.778" r="8.616263" fill="rgb(105,105,115)" /><circle cx="175.39604" cy="19.48912" r="8.466404" fill="rgb(85,205,115)" /><circle cx="46.451797" cy="101.30254" r="8.313844" fill="rgb(7,201,115)" /><circle cx="192.78711" cy="20.396454" r="8.0" fill="rgb(131,27,115)" /><circle cx="21.309967" cy="182.79105" r="7.673331" fill="rgb(105,119,37)" /><circle cx="325.68182" cy="131.62915" r="7.673331" fill="rgb(9,237,37)" /><circle cx="331.77496" cy="166.17111" r="7.673331" fill="rgb(221,151,37)" /><circle cx="330.04028" cy="201.2536" r="7.673331" fill="rgb(143,65,37)" /><circle cx="326.24228" cy="218.44818" r="7.673331" fill="rgb(87,111,37)" /><circle cx="316.99945" cy="243.19846" r="7.5046654" fill="rgb(75,13,37)" /><circle cx="292.8315" cy="279.97095" r="7.3321214" fill="rgb(251,5,37)" /><circle cx="280.43588" cy="292.56616" r="7.3321214" fill="rgb(83,251,37)" /><circle cx="266.70044" cy="303.70486" r="7.3321214" fill="rgb(15,85,37)" /><circle cx="251.79553" cy="313.24533" r="7.3321214" fill="rgb(125,97,37)" /><circle cx="235.90642" cy="321.06564" r="7.155418" fill="rgb(157,209,37)" /><circle cx="210.6631" cy="329.35706" r="7.155418" fill="rgb(255,65,37)" /><circle cx="88.26176" cy="70.29264" r="6.7882247" fill="rgb(211,87,215)" /><circle cx="331.8913" cy="183.75471" r="6.596969" fill="rgb(221,197,215)" /><circle cx="166.60214" cy="333.48102" r="6.596969" fill="rgb(151,121,215)" /><circle cx="90.84468" cy="310.14758" r="6.4" fill="rgb(111,119,215)" /><circle cx="24.372482" cy="228.59816" r="6.4" fill="rgb(83,123,215)" /><circle cx="14.930038" cy="166.96785" r="6.4" fill="rgb(71,151,215)" /><circle cx="43.187286" cy="82.84721" r="6.4" fill="rgb(29,255,215)" /><circle cx="221.43271" cy="243.38104" r="6.1967735" fill="rgb(89,13,215)" /><circle cx="124.31325" cy="55.315063" r="6.1967735" fill="rgb(203,197,215)" /><circle cx="238.30664" cy="227.70695" r="5.986652" fill="rgb(135,45,137)" /><circle cx="265.5304" cy="47.799347" r="5.7688823" fill="rgb(193,85,137)" /><circle cx="329.69553" cy="148.72316" r="5.7688823" fill="rgb(65,27,137)" /><circle cx="80.74544" cy="44.26747" r="5.7688823" fill="rgb(99,107,137)" /><circle cx="103.85814" cy="30.196915" r="5.7688823" fill="rgb(101,39,137)" /><circle cx="227.12436" cy="21.488647" r="5.7688823" fill="rgb(45,105,137)" /><circle cx="108.97761" cy="120.65581" r="5.5425625" fill="rgb(235,147,137)" /><circle cx="307.59073" cy="91.825386" r="5.5425625" fill="rgb(141,189,137)" /><circle cx="244.00269" cy="28.17479" r="5.5425625" fill="rgb(91,139,137)" /><circle cx="260.03903" cy="36.711426" r="5.5425625" fill="rgb(59,251,137)" /><circle cx="282.0757" cy="52.751358" r="5.5425625" fill="rgb(239,219,137)" /><circle cx="256.50928" cy="181.39426" r="5.3066" fill="rgb(3,41,137)" /><circle cx="174.00706" cy="295.95544" r="5.3066" fill="rgb(7,229,137)" /><circle cx="295.15076" cy="65.40919" r="5.3066" fill="rgb(229,209,137)" /><circle cx="306.73712" cy="79.45878" r="5.3066" fill="rgb(63,21,137)" /><circle cx="321.00848" cy="102.75716" r="5.3066" fill="rgb(209,23,137)" /><circle cx="314.86438" cy="260.46863" r="5.3066" fill="rgb(175,59,137)" /><circle cx="195.75526" cy="338.49518" r="5.3066" fill="rgb(109,255,137)" /><circle cx="121.470825" cy="239.66197" r="5.059644" fill="rgb(225,213,137)" /><circle cx="90.17212" cy="173.58478" r="5.059644" fill="rgb(111,185,137)" /><circle cx="246.9595" cy="137.38058" r="4.8" fill="rgb(247,193,59)" /><circle cx="76.197655" cy="299.98303" r="4.8" fill="rgb(43,29,59)" /><circle cx="222.75238" cy="332.56213" r="4.8" fill="rgb(167,43,59)" /><circle cx="233.5582" cy="119.15256" r="4.5254836" fill="rgb(1,69,59)" /><circle cx="168.716" cy="258.0904" r="4.5254836" fill="rgb(51,159,59)" /><circle cx="195.41394" cy="90.807846" r="4.5254836" fill="rgb(109,111,59)" /><circle cx="315.39545" cy="210.2763" r="4.5254836" fill="rgb(253,255,59)" /><circle cx="263.31747" cy="290.5436" r="4.5254836" fill="rgb(37,95,59)" /><circle cx="304.52405" cy="275.63388" r="4.5254836" fill="rgb(163,205,59)" /><circle cx="223.29503" cy="110.281944" r="4.233202" fill="rgb(245,135,59)" /><circle cx="77.61798" cy="175.55931" r="4.233202" fill="rgb(121,85,59)" /><circle cx="98.499466" cy="269.56158" r="4.233202" fill="rgb(223,249,59)" /><circle cx="209.68271" cy="55.55806" r="4.233202" fill="rgb(177,197,59)" /><circle cx="314.48715" cy="138.21735" r="4.233202" fill="rgb(175,15,59)" /><circle cx="281.47632" cy="184.5484" r="3.9191837" fill="rgb(161,19,237)" /><circle cx="33.812042" cy="98.21021" r="3.9191837" fill="rgb(17,223,237)" /><circle cx="209.61658" cy="16.734161" r="3.9191837" fill="rgb(177,227,237)" /><circle cx="328.27325" cy="119.49036" r="3.9191837" fill="rgb(243,69,237)" /><circle cx="285.644" cy="64.6091" r="3.577709" fill="rgb(217,131,237)" /><circle cx="327.03052" cy="235.81622" r="3.577709" fill="rgb(165,157,237)" /><circle cx="177.3537" cy="339.90253" r="3.577709" fill="rgb(241,77,237)" /><circle cx="149.72147" cy="338.1405" r="3.577709" fill="rgb(105,255,237)" /><circle cx="140.61838" cy="336.5247" r="3.577709" fill="rgb(171,99,237)" /><circle cx="122.74548" cy="331.77625" r="3.577709" fill="rgb(47,221,237)" /><circle cx="114.0319" cy="328.65784" r="3.577709" fill="rgb(191,243,237)" /><circle cx="97.18755" cy="320.9798" r="3.577709" fill="rgb(145,131,237)" /><circle cx="138.305" cy="104.32691" r="3.2" fill="rgb(15,179,237)" /><circle cx="146.39355" cy="100.56393" r="3.2" fill="rgb(127,123,237)" /><circle cx="199.1552" cy="98.297905" r="3.2" fill="rgb(165,223,237)" /><circle cx="94.76797" cy="201.5272" r="3.2" fill="rgb(167,65,237)" /><circle cx="233.87512" cy="110.76336" r="3.2" fill="rgb(1,135,237)" /><circle cx="229.46533" cy="268.09326" r="3.2" fill="rgb(201,171,237)" /><circle cx="120.39591" cy="117.42321" r="2.7712812" fill="rgb(147,169,159)" /><circle cx="138.84436" cy="97.01387" r="2.7712812" fill="rgb(15,145,159)" /><circle cx="74.55648" cy="199.68192" r="2.7712812" fill="rgb(143,165,159)" /><circle cx="171.67929" cy="283.36472" r="2.7712812" fill="rgb(29,61,159)" /><circle cx="97.08893" cy="164.02904" r="2.2627418" fill="rgb(145,251,159)" /><circle cx="109.15691" cy="131.11513" r="2.2627418" fill="rgb(57,237,159)" /><circle cx="103.67305" cy="206.86151" r="1.6" fill="rgb(101,199,81)" /></svg>
