<?xml version="1.0" encoding="UTF-8" standalone="no"?>
<!DOCTYPE svg PUBLIC "-//W3C//DTD SVG 1.1//EN" "http://www.w3.org/Graphics/SVG/1.1/DTD/svg11.dtd">
<svg width="400" height="400" viewBox="0 0 400 400" version="1.1" xmlns="http://www.w3.org/2000/svg">
<rect x="0" y="0" width="400" height="400" style="fill:black;"/>
<circle cx="191.60928" cy="194.55978" r="60" fill="rgb(255,255,255)" />
<circle cx="199.77092" cy="212.8187" r="53.0" fill="rgb(255,255,255)" />
<circle cx="204.39847" cy="183.17775" r="50.0" fill="rgb(255,255,255)" />
<circle cx="177.72095" cy="212.98227" r="45.9" fill="rgb(255,255,255)" />
<circle cx="225.96924" cy="199.86353" r="45.0" fill="rgb(255,255,255)" />
<circle cx="168.82446" cy="181.57489" r="30.3" fill="rgb(255,255,255)" />
<circle cx="213.1568" cy="235.74724" r="28.5" fill="rgb(255,255,255)" />
<circle cx="204.32582" cy="156.23615" r="27.4" fill="rgb(255,255,255)" />
<circle cx="163.99919" cy="236.69585" r="27.1" fill="rgb(255,255,255)" />
<circle cx="250.23108" cy="186.05928" r="26.0" fill="rgb(255,255,255)" />
<circle cx="140.33879" cy="181.19258" r="24.3" fill="rgb(255,255,255)" />
<circle cx="238.0405" cy="250.86592" r="21.0" fill="rgb(255,255,255)" />
<circle cx="190.29263" cy="129.95215" r="20.8" fill="rgb(255,255,255)" />
<circle cx="162.59874" cy="267.1857" r="18.7" fill="rgb(255,255,255)" />
<circle cx="267.48636" cy="159.95424" r="17.9" fill="rgb(255,255,255)" />
<circle cx="111.385666" cy="195.06229" r="16.9" fill="rgb(255,255,255)" />
<circle cx="270.8448" cy="253.99269" r="16.1" fill="rgb(255,255,255)" />
<circle cx="163.12198" cy="109.78522" r="15.7" fill="rgb(255,255,255)" />
<circle cx="175.72028" cy="299.36707" r="15.1" fill="rgb(255,255,255)" />
<circle cx="273.1578" cy="124.70761" r="14.2" fill="rgb(255,255,255)" />
<circle cx="87.54353" cy="222.9285" r="14.2" fill="rgb(255,255,255)" />
<circle cx="306.68225" cy="242.37622" r="13.3" fill="rgb(255,255,255)" />
<circle cx="125.51218" cy="100.68146" r="12.5" fill="rgb(255,255,255)" />
<circle cx="203.69969" cy="327.58832" r="11.3" fill="rgb(255,255,255)" />
<circle cx="263.94678" cy="84.956314" r="11.2" fill="rgb(255,255,255)" />
<circle cx="74.0963" cy="262.59863" r="11.0" fill="rgb(255,255,255)" />
<circle cx="339.87946" cy="215.06622" r="11.0" fill="rgb(255,255,255)" />
<circle cx="81.79236" cy="106.47958" r="10.4" fill="rgb(255,255,255)" />
<circle cx="244.89676" cy="346.26483" r="9.9" fill="rgb(255,255,255)" />
<circle cx="238.26778" cy="46.338074" r="9.7" fill="rgb(255,255,255)" />
<circle cx="75.41" cy="310.11325" r="9.3" fill="rgb(255,255,255)" />
<circle cx="364.59564" cy="173.10352" r="9.0" fill="rgb(255,255,255)" />
<circle cx="37.50003" cy="129.41757" r="8.9" fill="rgb(255,255,255)" />
<circle cx="295.78726" cy="350.52322" r="8.6" fill="rgb(255,255,255)" />
<circle cx="196.51561" cy="14.8967285" r="8.5" fill="rgb(255,255,255)" />
<circle cx="94.38682" cy="360.10638" r="8.4" fill="rgb(255,255,255)" />
<circle cx="375.47858" cy="119.50836" r="8.4" fill="rgb(255,255,255)" />
<circle cx="1.1800232" cy="169.79066" r="8.4" fill="rgb(255,255,255)" />
<circle cx="353.61496" cy="336.79254" r="8.2" fill="rgb(255,255,255)" />
<circle cx="143.49643" cy="3.5751953" r="8.1" fill="rgb(255,255,255)" />
<circle cx="134.41211" cy="413.47455" r="8.1" fill="rgb(255,255,255)" />
<circle cx="370.6532" cy="66.21362" r="8.0" fill="rgb(255,255,255)" />
<circle cx="25.704865" cy="232.94777" r="7.9" fill="rgb(255,255,255)" />
<circle cx="458.82828" cy="310.43408" r="7.9" fill="rgb(255,255,255)" />
<circle cx="130.25943" cy="2.9563904" r="7.8" fill="rgb(255,255,255)" />
<circle cx="241.08713" cy="449.40598" r="7.7" fill="rgb(255,255,255)" />
<circle cx="394.23114" cy="5.0559998" r="7.5" fill="rgb(255,255,255)" />
<circle cx="16.119263" cy="300.74402" r="7.3" fill="rgb(255,255,255)" />
<circle cx="504.20358" cy="257.45807" r="7.3" fill="rgb(255,255,255)" />
<circle cx="62.27896" cy="23.572174" r="7.3" fill="rgb(255,255,255)" />
<circle cx="310.71783" cy="468.96878" r="7.3" fill="rgb(255,255,255)" />
<circle cx="345.2287" cy="49.884796" r="7.3" fill="rgb(255,255,255)" />
<circle cx="28.019257" cy="474.47656" r="7.2" fill="rgb(255,255,255)" />
<circle cx="534.5477" cy="287.3164" r="7.1" fill="rgb(255,255,255)" />
<circle cx="2.0411377" cy="166.60016" r="7.1" fill="rgb(255,255,255)" />
<circle cx="393.59747" cy="566.9546" r="7.1" fill="rgb(255,255,255)" />
<circle cx="280.87744" cy="8.211182" r="7.1" fill="rgb(255,255,255)" />
<circle cx="67.81593" cy="547.6598" r="7.0" fill="rgb(255,255,255)" />
<circle cx="548.20337" cy="205.12814" r="7.0" fill="rgb(255,255,255)" />
<circle cx="51.210754" cy="231.63762" r="6.8" fill="rgb(255,255,255)" />
<circle cx="577.20667" cy="540.55237" r="6.7" fill="rgb(255,255,255)" />
<circle cx="299.43445" cy="13.74231" r="6.7" fill="rgb(255,255,255)" />
<circle cx="229.85274" cy="639.88794" r="6.6" fill="rgb(255,255,255)" />
<circle cx="635.2069" cy="144.62231" r="6.6" fill="rgb(255,255,255)" />
<circle cx="16.126526" cy="342.7119" r="6.6" fill="rgb(255,255,255)" />
<circle cx="652.99365" cy="515.9177" r="6.6" fill="rgb(255,255,255)" />
<circle cx="206.17526" cy="16.664978" r="6.5" fill="rgb(255,255,255)" />
<circle cx="311.02576" cy="688.5328" r="6.5" fill="rgb(255,255,255)" />
<circle cx="592.6404" cy="58.617554" r="6.4" fill="rgb(255,255,255)" />
<circle cx="5.267334" cy="439.3969" r="6.3" fill="rgb(255,255,255)" />
<circle cx="715.26733" cy="439.43973" r="6.3" fill="rgb(255,255,255)" />
<circle cx="111.159424" cy="47.70813" r="6.3" fill="rgb(255,255,255)" />
<circle cx="409.01917" cy="714.1761" r="6.3" fill="rgb(255,255,255)" />
<circle cx="523.20935" cy="16.96045" r="6.3" fill="rgb(255,255,255)" />
<circle cx="22.972107" cy="575.7652" r="6.2" fill="rgb(255,255,255)" />
<circle cx="756.35834" cy="376.40454" r="6.2" fill="rgb(255,255,255)" />
<circle cx="23.014465" cy="141.65614" r="6.2" fill="rgb(255,255,255)" />
<circle cx="516.96704" cy="745.3207" r="6.2" fill="rgb(255,255,255)" />
<circle cx="429.80847" cy="39.85663" r="6.2" fill="rgb(255,255,255)" />
<circle cx="71.30646" cy="755.03235" r="6.1" fill="rgb(255,255,255)" />
<circle cx="769.80945" cy="344.91827" r="6.1" fill="rgb(255,255,255)" />
<circle cx="49.385437" cy="308.5899" r="6.1" fill="rgb(255,255,255)" />
<circle cx="725.1266" cy="790.53796" r="6.1" fill="rgb(255,255,255)" />
<circle cx="416.649" cy="9.230347" r="6.1" fill="rgb(255,255,255)" />
<circle cx="248.45721" cy="842.4239" r="6.1" fill="rgb(255,255,255)" />
<circle cx="849.85" cy="227.66644" r="6.1" fill="rgb(255,255,255)" />
<circle cx="1.0409546" cy="418.51526" r="6.0" fill="rgb(255,255,255)" />
<circle cx="826.45795" cy="723.6166" r="6.0" fill="rgb(255,255,255)" />
<circle cx="293.87152" cy="10.558655" r="5.9" fill="rgb(255,255,255)" />
<circle cx="353.49356" cy="908.5816" r="5.9" fill="rgb(255,255,255)" />
<circle cx="796.8822" cy="113.907776" r="5.9" fill="rgb(255,255,255)" />
<circle cx="16.310974" cy="544.1598" r="5.8" fill="rgb(255,255,255)" />
<circle cx="942.6652" cy="626.42645" r="5.8" fill="rgb(255,255,255)" />
<circle cx="202.26593" cy="47.281433" r="5.8" fill="rgb(255,255,255)" />
<circle cx="511.704" cy="945.47296" r="5.8" fill="rgb(255,255,255)" />
<circle cx="743.10895" cy="13.780029" r="5.8" fill="rgb(255,255,255)" />
<circle cx="34.78064" cy="676.4798" r="5.8" fill="rgb(255,255,255)" />
<circle cx="999.48535" cy="504.01294" r="5.7" fill="rgb(255,255,255)" />
<circle cx="86.98633" cy="120.02661" r="5.7" fill="rgb(255,255,255)" />
<circle cx="649.3654" cy="946.9062" r="5.7" fill="rgb(255,255,255)" />
<circle cx="627.1087" cy="62.84857" r="5.7" fill="rgb(255,255,255)" />
<circle cx="91.20184" cy="930.7217" r="5.7" fill="rgb(255,255,255)" />
<circle cx="1022.0447" cy="489.7777" r="5.6" fill="rgb(255,255,255)" />
<circle cx="8.793823" cy="352.03867" r="5.6" fill="rgb(255,255,255)" />
<circle cx="806.4044" cy="1034.913" r="5.6" fill="rgb(255,255,255)" />
<circle cx="505.81442" cy="18.426025" r="5.6" fill="rgb(255,255,255)" />
<circle cx="202.2031" cy="1044.4475" r="5.5" fill="rgb(255,255,255)" />
<circle cx="1022.7296" cy="342.21082" r="5.5" fill="rgb(255,255,255)" />
<circle cx="57.694458" cy="486.37653" r="5.5" fill="rgb(255,255,255)" />
<circle cx="1051.7134" cy="957.46735" r="5.5" fill="rgb(255,255,255)" />
<circle cx="468.6914" cy="12.911743" r="5.5" fill="rgb(255,255,255)" />
<circle cx="443.80817" cy="1132.6353" r="5.5" fill="rgb(255,255,255)" />
<circle cx="1079.4656" cy="198.37634" r="5.5" fill="rgb(255,255,255)" />
<circle cx="28.62915" cy="640.35236" r="5.5" fill="rgb(255,255,255)" />
<circle cx="1160.6439" cy="842.9417" r="5.4" fill="rgb(255,255,255)" />
<circle cx="313.71423" cy="50.281555" r="5.4" fill="rgb(255,255,255)" />
<circle cx="595.5336" cy="1185.8333" r="5.4" fill="rgb(255,255,255)" />
<circle cx="980.0901" cy="70.254395" r="5.4" fill="rgb(255,255,255)" />
<circle cx="42.643555" cy="803.2578" r="5.4" fill="rgb(255,255,255)" />
<circle cx="1237.9586" cy="697.3235" r="5.4" fill="rgb(255,255,255)" />
<circle cx="168.53516" cy="131.25513" r="5.3" fill="rgb(255,255,255)" />
<circle cx="762.77563" cy="1196.7495" r="5.3" fill="rgb(255,255,255)" />
<circle cx="844.4811" cy="30.533813" r="5.3" fill="rgb(255,255,255)" />
<circle cx="102.270874" cy="1023.8736" r="5.3" fill="rgb(255,255,255)" />
<circle cx="1274.8165" cy="590.7032" r="5.2" fill="rgb(255,255,255)" />
<circle cx="45.556885" cy="314.07913" r="5.2" fill="rgb(255,255,255)" />
<circle cx="933.496" cy="1222.0793" r="5.1" fill="rgb(255,255,255)" />
</svg>
