<?xml version="1.0" encoding="UTF-8" standalone="no"?>
<!DOCTYPE svg PUBLIC "-//W3C//DTD SVG 1.1//EN" "http://www.w3.org/Graphics/SVG/1.1/DTD/svg11.dtd">
<svg width="350.0" height="350.0" viewBox="0 0 350.0 350.0" version="1.1" xmlns="http://www.w3.org/2000/svg">
<rect x="0" y="0" width="350.0" height="350.0" style="fill:white;"/>
<circle cx="175.0" cy="175.0" r="75.8778" fill="rgb(85,85,221)" />
<text x="175.0" y="175.0" style="font-family:Verdana;font-weight:bold; font-size:7;" text-anchor="middle" fill="white"><tspan>Other..</tspan><tspan dx="-25" dy="10">[2249]</tspan></text>
<circle cx="165.32013" cy="63.981636" r="35.054245" fill="rgb(73,53,173)" />
<text x="165.32013" y="63.981636" style="font-family:Verdana;font-weight:bold; font-size:7;" text-anchor="middle" fill="white"><tspan>Pasta..</tspan><tspan dx="-25" dy="10">[480]</tspan></text>
<circle cx="71.90185" cy="135.74216" r="33.941128" fill="rgb(165,37,17)" />
<text x="71.90185" y="135.74216" style="font-family:Verdana;font-weight:bold; font-size:7;" text-anchor="middle" fill="white"><tspan>Rice..</tspan><tspan dx="-24" dy="10">[450]</tspan></text>
<circle cx="136.01538" cy="276.52393" r="32.357998" fill="rgb(115,27,195)" />
<text x="136.01538" y="276.52393" style="font-family:Verdana;font-weight:bold; font-size:7;" text-anchor="middle" fill="white"><tspan>Pizza..</tspan><tspan dx="-25" dy="10">[409]</tspan></text>
<circle cx="84.010605" cy="235.6811" r="32.0" fill="rgb(155,157,195)" />
<text x="84.010605" y="235.6811" style="font-family:Verdana;font-weight:bold; font-size:7;" text-anchor="middle" fill="white"><tspan>Chick..</tspan><tspan dx="-25" dy="10">[400]</tspan></text>
<circle cx="199.03035" cy="273.9886" r="25.449558" fill="rgb(165,49,161)" />
<text x="199.03035" y="273.9886" style="font-family:Verdana;font-weight:bold; font-size:7;" text-anchor="middle" fill="white"><tspan>Meat..</tspan><tspan dx="-24" dy="10">[253]</tspan></text>
<circle cx="268.68875" cy="212.49095" r="24.527536" fill="rgb(171,155,83)" />
<text x="268.68875" y="212.49095" style="font-family:Verdana;font-weight:bold; font-size:7;" text-anchor="middle" fill="white"><tspan>Dontk..</tspan><tspan dx="-25" dy="10">[235]</tspan></text>
<circle cx="273.74197" cy="157.09837" r="23.946608" fill="rgb(49,217,5)" />
<text x="273.74197" y="157.09837" style="font-family:Verdana;font-weight:bold; font-size:7;" text-anchor="middle" fill="white"><tspan>Veget..</tspan><tspan dx="-25" dy="10">[224]</tspan></text>
<circle cx="224.21985" cy="81.42794" r="23.785711" fill="rgb(67,177,5)" />
<text x="224.21985" y="81.42794" style="font-family:Verdana;font-weight:bold; font-size:7;" text-anchor="middle" fill="white"><tspan>Steak..</tspan><tspan dx="-25" dy="10">[221]</tspan></text>
<circle cx="112.88543" cy="90.83035" r="23.186203" fill="rgb(35,111,5)" />
<text x="112.88543" y="90.83035" style="font-family:Verdana;font-weight:bold; font-size:7;" text-anchor="middle" fill="white"><tspan>Chine..</tspan><tspan dx="-25" dy="10">[210]</tspan></text>
<circle cx="260.25424" cy="111.71515" r="22.227911" fill="rgb(59,213,183)" />
<text x="260.25424" y="111.71515" style="font-family:Verdana;font-weight:bold; font-size:7;" text-anchor="middle" fill="white"><tspan>Lasag..</tspan><tspan dx="-25" dy="10">[193]</tspan></text>
<circle cx="248.63025" cy="253.5057" r="20.238577" fill="rgb(147,25,27)" />
<text x="248.63025" y="253.5057" style="font-family:Verdana;font-weight:bold; font-size:7;" text-anchor="middle" fill="white"><tspan>Fish..</tspan><tspan dx="-24" dy="10">[160]</tspan></text>
<circle cx="53.27928" cy="188.02403" r="20.111689" fill="rgb(41,75,27)" />
<text x="53.27928" y="188.02403" style="font-family:Verdana;font-weight:bold; font-size:7;" text-anchor="middle" fill="white"><tspan>Itali..</tspan><tspan dx="-25" dy="10">[158]</tspan></text>
<circle cx="306.37994" cy="188.26079" r="18.72752" fill="rgb(63,75,127)" />
<text x="306.37994" y="188.26079" style="font-family:Verdana;font-weight:bold; font-size:7;" text-anchor="middle" fill="white"><tspan>Seafo..</tspan><tspan dx="-25" dy="10">[137]</tspan></text>
<circle cx="301.1385" cy="119.48256" r="18.172506" fill="rgb(185,69,127)" />
<text x="301.1385" y="119.48256" style="font-family:Verdana;font-weight:bold; font-size:7;" text-anchor="middle" fill="white"><tspan>Mexic..</tspan><tspan dx="-25" dy="10">[129]</tspan></text>
<circle cx="290.0924" cy="252.6253" r="17.45394" fill="rgb(95,203,49)" />
<text x="290.0924" y="252.6253" style="font-family:Verdana;font-weight:bold; font-size:7;" text-anchor="middle" fill="white"><tspan>Spagh..</tspan><tspan dx="-25" dy="10">[119]</tspan></text>
<circle cx="240.8777" cy="290.53784" r="16.857046" fill="rgb(35,95,227)" />
<text x="240.8777" y="290.53784" style="font-family:Verdana;font-weight:bold; font-size:7;" text-anchor="middle" fill="white"><tspan>Choco..</tspan><tspan dx="-25" dy="10">[111]</tspan></text>
<circle cx="264.3512" cy="70.66311" r="16.550528" fill="rgb(115,87,227)" />
<text x="264.3512" y="70.66311" style="font-family:Verdana;font-weight:bold; font-size:7;" text-anchor="middle" fill="white"><tspan>Salad..</tspan><tspan dx="-25" dy="10">[107]</tspan></text>
<circle cx="186.36356" cy="314.2566" r="16.079802" fill="rgb(175,175,227)" />
<text x="186.36356" y="314.2566" style="font-family:Verdana;font-weight:bold; font-size:7;" text-anchor="middle" fill="white"><tspan>India..</tspan><tspan dx="-25" dy="10">[101]</tspan></text>
<circle cx="66.316925" cy="83.49982" r="15.346662" fill="rgb(31,149,77)"/>
<circle cx="102.391716" cy="52.493202" r="15.346662" fill="rgb(23,149,219)"/>
<circle cx="210.28336" cy="36.223663" r="14.576694" fill="rgb(255,71,251)"/>
<circle cx="90.386475" cy="287.09833" r="13.856407" fill="rgb(111,249,117)"/>
<circle cx="311.84607" cy="156.46599" r="12.699607" fill="rgb(197,171,139)"/>
<circle cx="304.2511" cy="225.03958" r="12.5984125" fill="rgb(163,171,145)"/>
<circle cx="240.33035" cy="47.32881" r="12.393547" fill="rgb(35,171,85)"/>
<circle cx="289.5423" cy="87.955475" r="12.393547" fill="rgb(17,171,133)"/>
<circle cx="216.94543" cy="308.0397" r="11.757551" fill="rgb(211,93,219)"/>
<circle cx="85.25488" cy="189.71608" r="11.2" fill="rgb(233,93,153)"/>
<circle cx="40.584305" cy="217.79388" r="10.969048" fill="rgb(51,15,33)"/>
<circle cx="270.12735" cy="276.4149" r="10.491901" fill="rgb(71,15,27)"/>
<circle cx="34.04065" cy="163.16344" r="10.119288" fill="rgb(95,15,173)"/>
<circle cx="155.84758" cy="319.95563" r="9.991997" fill="rgb(61,193,53)"/>
<circle cx="127.84359" cy="33.76085" r="9.6" fill="rgb(181,193,17)"/>
<circle cx="131.61829" cy="321.3615" r="9.465728" fill="rgb(237,193,209)"/>
<circle cx="107.68191" cy="312.19788" r="9.329523" fill="rgb(157,193,19)"/>
<circle cx="65.971245" cy="282.5664" r="9.329523" fill="rgb(209,193,239)"/>
<circle cx="49.38241" cy="262.9176" r="9.329523" fill="rgb(241,193,215)"/>
<circle cx="36.298416" cy="240.74728" r="9.050967" fill="rgb(251,193,35)"/>
<circle cx="23.25418" cy="199.90134" r="8.908423" fill="rgb(5,115,165)"/>
<circle cx="24.869537" cy="139.95105" r="8.908423" fill="rgb(83,115,93)"/>
<circle cx="32.688812" cy="115.276146" r="8.763561" fill="rgb(195,115,13)"/>
<circle cx="72.30551" cy="59.19094" r="8.616263" fill="rgb(243,115,253)"/>
<circle cx="149.41515" cy="21.778" r="8.616263" fill="rgb(105,115,105)"/>
<circle cx="175.39604" cy="19.48912" r="8.466404" fill="rgb(85,115,205)"/>
<circle cx="46.451797" cy="101.30254" r="8.313844" fill="rgb(7,115,201)"/>
<circle cx="192.78711" cy="20.396454" r="8.0" fill="rgb(131,115,27)"/>
<circle cx="21.309967" cy="182.79105" r="7.673331" fill="rgb(105,37,119)"/>
<circle cx="325.68182" cy="131.62915" r="7.673331" fill="rgb(9,37,237)"/>
<circle cx="331.77496" cy="166.17111" r="7.673331" fill="rgb(221,37,151)"/>
<circle cx="330.04028" cy="201.2536" r="7.673331" fill="rgb(143,37,65)"/>
<circle cx="326.24228" cy="218.44818" r="7.673331" fill="rgb(87,37,111)"/>
<circle cx="316.99945" cy="243.19846" r="7.5046654" fill="rgb(75,37,13)"/>
<circle cx="292.8315" cy="279.97095" r="7.3321214" fill="rgb(251,37,5)"/>
<circle cx="280.43588" cy="292.56616" r="7.3321214" fill="rgb(83,37,251)"/>
<circle cx="266.70044" cy="303.70486" r="7.3321214" fill="rgb(15,37,85)"/>
<circle cx="251.79553" cy="313.24533" r="7.3321214" fill="rgb(125,37,97)"/>
<circle cx="235.90642" cy="321.06564" r="7.155418" fill="rgb(157,37,209)"/>
<circle cx="210.6631" cy="329.35706" r="7.155418" fill="rgb(255,37,65)"/>
<circle cx="88.26176" cy="70.29264" r="6.7882247" fill="rgb(211,215,87)"/>
<circle cx="331.8913" cy="183.75471" r="6.596969" fill="rgb(221,215,197)"/>
<circle cx="166.60214" cy="333.48102" r="6.596969" fill="rgb(151,215,121)"/>
<circle cx="90.84468" cy="310.14758" r="6.4" fill="rgb(111,215,119)"/>
<circle cx="24.372482" cy="228.59816" r="6.4" fill="rgb(83,215,123)"/>
<circle cx="14.930038" cy="166.96785" r="6.4" fill="rgb(71,215,151)"/>
<circle cx="43.187286" cy="82.84721" r="6.4" fill="rgb(29,215,255)"/>
<circle cx="221.43271" cy="243.38104" r="6.1967735" fill="rgb(89,215,13)"/>
<circle cx="124.31325" cy="55.315063" r="6.1967735" fill="rgb(203,215,197)"/>
<circle cx="238.30664" cy="227.70695" r="5.986652" fill="rgb(135,137,45)"/>
<circle cx="265.5304" cy="47.799347" r="5.7688823" fill="rgb(193,137,85)"/>
<circle cx="329.69553" cy="148.72316" r="5.7688823" fill="rgb(65,137,27)"/>
<circle cx="80.74544" cy="44.26747" r="5.7688823" fill="rgb(99,137,107)"/>
<circle cx="103.85814" cy="30.196915" r="5.7688823" fill="rgb(101,137,39)"/>
<circle cx="227.12436" cy="21.488647" r="5.7688823" fill="rgb(45,137,105)"/>
<circle cx="108.97761" cy="120.65581" r="5.5425625" fill="rgb(235,137,147)"/>
<circle cx="307.59073" cy="91.825386" r="5.5425625" fill="rgb(141,137,189)"/>
<circle cx="244.00269" cy="28.17479" r="5.5425625" fill="rgb(91,137,139)"/>
<circle cx="260.03903" cy="36.711426" r="5.5425625" fill="rgb(59,137,251)"/>
<circle cx="282.0757" cy="52.751358" r="5.5425625" fill="rgb(239,137,219)"/>
<circle cx="256.50928" cy="181.39426" r="5.3066" fill="rgb(3,137,41)"/>
<circle cx="174.00706" cy="295.95544" r="5.3066" fill="rgb(7,137,229)"/>
<circle cx="295.15076" cy="65.40919" r="5.3066" fill="rgb(229,137,209)"/>
<circle cx="306.73712" cy="79.45878" r="5.3066" fill="rgb(63,137,21)"/>
<circle cx="321.00848" cy="102.75716" r="5.3066" fill="rgb(209,137,23)"/>
<circle cx="314.86438" cy="260.46863" r="5.3066" fill="rgb(175,137,59)"/>
<circle cx="195.75526" cy="338.49518" r="5.3066" fill="rgb(109,137,255)"/>
<circle cx="121.470825" cy="239.66197" r="5.059644" fill="rgb(225,137,213)"/>
<circle cx="90.17212" cy="173.58478" r="5.059644" fill="rgb(111,137,185)"/>
<circle cx="246.9595" cy="137.38058" r="4.8" fill="rgb(247,59,193)"/>
<circle cx="76.197655" cy="299.98303" r="4.8" fill="rgb(43,59,29)"/>
<circle cx="222.75238" cy="332.56213" r="4.8" fill="rgb(167,59,43)"/>
<circle cx="233.5582" cy="119.15256" r="4.5254836" fill="rgb(1,59,69)"/>
<circle cx="168.716" cy="258.0904" r="4.5254836" fill="rgb(51,59,159)"/>
<circle cx="195.41394" cy="90.807846" r="4.5254836" fill="rgb(109,59,111)"/>
<circle cx="315.39545" cy="210.2763" r="4.5254836" fill="rgb(253,59,255)"/>
<circle cx="263.31747" cy="290.5436" r="4.5254836" fill="rgb(37,59,95)"/>
<circle cx="304.52405" cy="275.63388" r="4.5254836" fill="rgb(163,59,205)"/>
<circle cx="223.29503" cy="110.281944" r="4.233202" fill="rgb(245,59,135)"/>
<circle cx="77.61798" cy="175.55931" r="4.233202" fill="rgb(121,59,85)"/>
<circle cx="98.499466" cy="269.56158" r="4.233202" fill="rgb(223,59,249)"/>
<circle cx="209.68271" cy="55.55806" r="4.233202" fill="rgb(177,59,197)"/>
<circle cx="314.48715" cy="138.21735" r="4.233202" fill="rgb(175,59,15)"/>
<circle cx="281.47632" cy="184.5484" r="3.9191837" fill="rgb(161,237,19)"/>
<circle cx="33.812042" cy="98.21021" r="3.9191837" fill="rgb(17,237,223)"/>
<circle cx="209.61658" cy="16.734161" r="3.9191837" fill="rgb(177,237,227)"/>
<circle cx="328.27325" cy="119.49036" r="3.9191837" fill="rgb(243,237,69)"/>
<circle cx="285.644" cy="64.6091" r="3.577709" fill="rgb(217,237,131)"/>
<circle cx="327.03052" cy="235.81622" r="3.577709" fill="rgb(165,237,157)"/>
<circle cx="177.3537" cy="339.90253" r="3.577709" fill="rgb(241,237,77)"/>
<circle cx="149.72147" cy="338.1405" r="3.577709" fill="rgb(105,237,255)"/>
<circle cx="140.61838" cy="336.5247" r="3.577709" fill="rgb(171,237,99)"/>
<circle cx="122.74548" cy="331.77625" r="3.577709" fill="rgb(47,237,221)"/>
<circle cx="114.0319" cy="328.65784" r="3.577709" fill="rgb(191,237,243)"/>
<circle cx="97.18755" cy="320.9798" r="3.577709" fill="rgb(145,237,131)"/>
<circle cx="138.305" cy="104.32691" r="3.2" fill="rgb(15,237,179)"/>
<circle cx="146.39355" cy="100.56393" r="3.2" fill="rgb(127,237,123)"/>
<circle cx="199.1552" cy="98.297905" r="3.2" fill="rgb(165,237,223)"/>
<circle cx="94.76797" cy="201.5272" r="3.2" fill="rgb(167,237,65)"/>
<circle cx="233.87512" cy="110.76336" r="3.2" fill="rgb(1,237,135)"/>
<circle cx="229.46533" cy="268.09326" r="3.2" fill="rgb(201,237,171)"/>
<circle cx="120.39591" cy="117.42321" r="2.7712812" fill="rgb(147,159,169)"/>
<circle cx="138.84436" cy="97.01387" r="2.7712812" fill="rgb(15,159,145)"/>
<circle cx="74.55648" cy="199.68192" r="2.7712812" fill="rgb(143,159,165)"/>
<circle cx="171.67929" cy="283.36472" r="2.7712812" fill="rgb(29,159,61)"/>
<circle cx="97.08893" cy="164.02904" r="2.2627418" fill="rgb(145,159,251)"/>
<circle cx="109.15691" cy="131.11513" r="2.2627418" fill="rgb(57,159,237)"/>
<circle cx="103.67305" cy="206.86151" r="1.6" fill="rgb(101,81,199)"/>
</svg>
