<?xml version="1.0" encoding="UTF-8" standalone="no"?>
<!DOCTYPE svg PUBLIC "-//W3C//DTD SVG 1.1//EN" "http://www.w3.org/Graphics/SVG/1.1/DTD/svg11.dtd">
<svg width="350.0" height="350.0" viewBox="0 0 350.0 350.0" version="1.1" xmlns="http://www.w3.org/2000/svg">
<rect x="0" y="0" width="350.0" height="350.0" style="fill:white;"/>
<circle cx="175.0" cy="175.0" r="72.13544" fill="rgb(81,216,297)" />
<circle cx="277.41577" cy="145.66142" r="33.863354" fill="rgb(38,101,139)" />
<circle cx="198.09177" cy="72.09497" r="32.819805" fill="rgb(37,98,135)" />
<circle cx="77.02489" cy="140.0715" r="31.335625" fill="rgb(35,94,129)" />
<circle cx="116.05954" cy="88.532616" r="31.0" fill="rgb(35,93,128)" />
<circle cx="270.2951" cy="208.05385" r="24.85896" fill="rgb(28,74,102)" />
<circle cx="104.00905" cy="240.57645" r="23.994564" fill="rgb(27,71,98)" />
<circle cx="144.66681" cy="266.2289" r="23.449945" fill="rgb(26,70,96)" />
<circle cx="80.67722" cy="198.25673" r="23.299103" fill="rgb(26,69,95)" />
<circle cx="215.19962" cy="261.4986" r="22.737064" fill="rgb(25,68,93)" />
<circle cx="250.86191" cy="92.24021" r="21.838665" fill="rgb(24,65,89)" />
<circle cx="258.58994" cy="252.28572" r="19.973667" fill="rgb(22,59,81)" />
<circle cx="181.20595" cy="295.74057" r="19.854708" fill="rgb(22,59,81)" />
<circle cx="147.2798" cy="47.824516" r="18.557049" fill="rgb(21,55,76)" />
<circle cx="112.2875" cy="293.42468" r="18.036724" fill="rgb(20,54,74)" />
<circle cx="62.470497" cy="248.68655" r="17.363068" fill="rgb(19,52,71)" />
<circle cx="40.37419" cy="185.21445" r="16.803482" fill="rgb(19,50,69)" />
<circle cx="313.04944" cy="183.1355" r="16.51612" fill="rgb(18,49,67)" />
<circle cx="218.4141" cy="300.91122" r="16.074814" fill="rgb(18,48,66)" />
<circle cx="296.75443" cy="241.4971" r="15.387495" fill="rgb(17,46,63)" />
<circle cx="249.76898" cy="292.45514" r="15.387495" fill="rgb(17,46,63)" />
<circle cx="143.85692" cy="305.07648" r="14.66565" fill="rgb(16,43,59)" />
<circle cx="84.568924" cy="274.23248" r="13.990381" fill="rgb(15,41,56)" />
<circle cx="47.412354" cy="218.38028" r="12.905881" fill="rgb(14,38,52)" />
<circle cx="64.34036" cy="96.447426" r="12.811011" fill="rgb(14,38,52)" />
<circle cx="285.84186" cy="93.472595" r="12.61895" fill="rgb(14,37,51)" />
<circle cx="237.33987" cy="45.86801" r="12.61895" fill="rgb(14,37,51)" />
<circle cx="176.2489" cy="32.054245" r="12.022704" fill="rgb(13,36,49)" />
<circle cx="34.700195" cy="156.59314" r="11.5" fill="rgb(13,34,47)" />
<circle cx="115.295425" cy="45.599396" r="11.283482" fill="rgb(12,33,45)" />
<circle cx="260.60458" cy="59.72889" r="10.836158" fill="rgb(12,32,44)" />
<circle cx="314.72284" cy="212.92479" r="10.486834" fill="rgb(11,31,42)" />
<circle cx="181.63138" cy="264.2151" r="10.3674965" fill="rgb(11,31,42)" />
<circle cx="78.354935" cy="70.69663" r="10.0" fill="rgb(11,30,41)" />
<circle cx="285.50018" cy="269.2251" r="9.87412" fill="rgb(11,29,40)" />
<circle cx="236.76776" cy="229.54626" r="9.746428" fill="rgb(11,29,40)" />
<circle cx="163.27203" cy="320.6931" r="9.746428" fill="rgb(11,29,40)" />
<circle cx="35.31485" cy="126.11709" r="9.746428" fill="rgb(11,29,40)" />
<circle cx="157.13629" cy="90.68663" r="9.485281" fill="rgb(10,28,38)" />
<circle cx="90.57609" cy="52.684998" r="9.351646" fill="rgb(10,28,38)" />
<circle cx="206.87048" cy="28.997406" r="9.351646" fill="rgb(10,28,38)" />
<circle cx="280.70477" cy="68.563255" r="9.215838" fill="rgb(10,27,37)" />
<circle cx="199.92874" cy="318.7671" r="9.077747" fill="rgb(10,27,37)" />
<circle cx="308.7611" cy="106.408035" r="9.077747" fill="rgb(10,27,37)" />
<circle cx="316.43927" cy="123.71919" r="8.937254" fill="rgb(10,26,36)" />
<circle cx="321.88547" cy="141.87326" r="8.794229" fill="rgb(9,26,35)" />
<circle cx="325.0095" cy="160.58353" r="8.5" fill="rgb(9,25,34)" />
<circle cx="228.24312" cy="114.18378" r="8.1937475" fill="rgb(9,24,33)" />
<circle cx="42.45288" cy="108.89364" r="8.1937475" fill="rgb(9,24,33)" />
<circle cx="275.16974" cy="288.8527" r="8.1937475" fill="rgb(9,24,33)" />
<circle cx="122.70444" cy="318.48373" r="8.1937475" fill="rgb(9,24,33)" />
<circle cx="59.531403" cy="275.7155" r="8.1937475" fill="rgb(9,24,33)" />
<circle cx="33.718628" cy="235.10669" r="8.035624" fill="rgb(9,24,33)" />
<circle cx="24.756744" cy="207.53125" r="7.8738637" fill="rgb(8,23,31)" />
<circle cx="59.931976" cy="71.645676" r="7.8738637" fill="rgb(8,23,31)" />
<circle cx="152.40727" cy="21.28859" r="7.8738637" fill="rgb(8,23,31)" />
<circle cx="322.21686" cy="230.81387" r="7.8738637" fill="rgb(8,23,31)" />
<circle cx="303.85504" cy="265.90536" r="7.7082043" fill="rgb(8,23,31)" />
<circle cx="244.1481" cy="317.28552" r="7.7082043" fill="rgb(8,23,31)" />
<circle cx="123.99135" cy="28.449478" r="7.3639607" fill="rgb(8,22,30)" />
<circle cx="305.67447" cy="88.88682" r="7.184658" fill="rgb(8,21,29)" />
<circle cx="329.89554" cy="202.12709" r="7.184658" fill="rgb(8,21,29)" />
<circle cx="179.34317" cy="327.2768" r="7.0" fill="rgb(7,21,28)" />
<circle cx="80.627556" cy="295.4681" r="7.0" fill="rgb(7,21,28)" />
<circle cx="24.816696" cy="140.1851" r="7.0" fill="rgb(7,21,28)" />
<circle cx="225.7587" cy="324.96686" r="7.0" fill="rgb(7,21,28)" />
<circle cx="146.92995" cy="331.32797" r="6.809475" fill="rgb(7,20,27)" />
<circle cx="91.01451" cy="310.2517" r="6.809475" fill="rgb(7,20,27)" />
<circle cx="191.47632" cy="20.259796" r="6.6124864" fill="rgb(7,19,26)" />
<circle cx="238.87048" cy="125.15429" r="6.408327" fill="rgb(7,19,26)" />
<circle cx="66.97007" cy="292.20215" r="6.408327" fill="rgb(7,19,26)" />
<circle cx="40.94594" cy="261.69904" r="6.408327" fill="rgb(7,19,26)" />
<circle cx="15.241684" cy="186.21045" r="6.408327" fill="rgb(7,19,26)" />
<circle cx="14.973633" cy="166.03708" r="6.408327" fill="rgb(7,19,26)" />
<circle cx="158.54022" cy="71.21099" r="6.196152" fill="rgb(7,18,25)" />
<circle cx="38.775497" cy="89.598114" r="6.196152" fill="rgb(7,18,25)" />
<circle cx="71.737404" cy="51.351997" r="6.196152" fill="rgb(7,18,25)" />
<circle cx="96.71659" cy="33.987106" r="6.196152" fill="rgb(7,18,25)" />
<circle cx="134.28815" cy="18.67717" r="6.196152" fill="rgb(7,18,25)" />
<circle cx="237.38019" cy="67.119736" r="5.9749374" fill="rgb(6,17,23)" />
<circle cx="256.18262" cy="41.722687" r="5.9749374" fill="rgb(6,17,23)" />
<circle cx="174.55333" cy="13.2113495" r="5.9749374" fill="rgb(6,17,23)" />
<circle cx="224.7996" cy="20.734665" r="5.9749374" fill="rgb(6,17,23)" />
<circle cx="270.33044" cy="43.500443" r="5.9749374" fill="rgb(6,17,23)" />
<circle cx="300.30334" cy="71.26464" r="5.9749374" fill="rgb(6,17,23)" />
<circle cx="338.36414" cy="175.25017" r="5.9749374" fill="rgb(6,17,23)" />
<circle cx="243.84537" cy="28.102142" r="5.743417" fill="rgb(6,17,23)" />
<circle cx="333.3854" cy="216.04115" r="5.743417" fill="rgb(6,17,23)" />
<circle cx="96.45703" cy="173.29" r="5.5" fill="rgb(6,16,22)" />
<circle cx="112.04337" cy="126.960686" r="5.5" fill="rgb(6,16,22)" />
<circle cx="23.32254" cy="225.61311" r="5.5" fill="rgb(6,16,22)" />
<circle cx="269.53717" cy="301.608" r="5.2426405" fill="rgb(5,15,20)" />
<circle cx="108.73048" cy="319.61963" r="5.2426405" fill="rgb(5,15,20)" />
<circle cx="323.02435" cy="245.14978" r="5.2426405" fill="rgb(5,15,20)" />
<circle cx="301.05002" cy="280.0058" r="5.2426405" fill="rgb(5,15,20)" />
<circle cx="262.48056" cy="314.15976" r="5.2426405" fill="rgb(5,15,20)" />
<circle cx="215.13617" cy="334.72174" r="5.2426405" fill="rgb(5,15,20)" />
<circle cx="194.76021" cy="338.62457" r="4.968627" fill="rgb(5,14,19)" />
<circle cx="174.03947" cy="339.93665" r="4.968627" fill="rgb(5,14,19)" />
<circle cx="132.87778" cy="334.73083" r="4.968627" fill="rgb(5,14,19)" />
<circle cx="76.673454" cy="308.21088" r="4.968627" fill="rgb(5,14,19)" />
<circle cx="46.36708" cy="279.64386" r="4.968627" fill="rgb(5,14,19)" />
<circle cx="270.37604" cy="276.17764" r="4.674235" fill="rgb(5,14,19)" />
<circle cx="220.57701" cy="39.17679" r="4.674235" fill="rgb(5,14,19)" />
<circle cx="184.4225" cy="339.60696" r="4.674235" fill="rgb(5,14,19)" />
<circle cx="163.65233" cy="339.61176" r="4.674235" fill="rgb(5,14,19)" />
<circle cx="105.844986" cy="211.20175" r="4.354102" fill="rgb(4,13,17)" />
<circle cx="215.77274" cy="105.42625" r="4.354102" fill="rgb(4,13,17)" />
<circle cx="70.34408" cy="224.55814" r="4.354102" fill="rgb(4,13,17)" />
<circle cx="298.97507" cy="221.19986" r="4.354102" fill="rgb(4,13,17)" />
<circle cx="29.237076" cy="107.44807" r="4.354102" fill="rgb(4,13,17)" />
<circle cx="335.31604" cy="144.58691" r="4.354102" fill="rgb(4,13,17)" />
<circle cx="318.36902" cy="254.361" r="4.354102" fill="rgb(4,13,17)" />
<circle cx="294.2343" cy="287.7771" r="4.354102" fill="rgb(4,13,17)" />
<circle cx="188.10892" cy="250.67041" r="4.0" fill="rgb(4,12,16)" />
<circle cx="168.80579" cy="251.80011" r="4.0" fill="rgb(4,12,16)" />
<circle cx="244.75946" cy="273.04913" r="4.0" fill="rgb(4,12,16)" />
<circle cx="322.44028" cy="105.679214" r="4.0" fill="rgb(4,12,16)" />
<circle cx="330.103" cy="124.71935" r="4.0" fill="rgb(4,12,16)" />
<circle cx="333.02206" cy="134.56906" r="4.0" fill="rgb(4,12,16)" />
<circle cx="222.7091" cy="234.53598" r="3.598076" fill="rgb(4,10,14)" />
<circle cx="132.20682" cy="239.67838" r="3.598076" fill="rgb(4,10,14)" />
<circle cx="256.67413" cy="177.47977" r="3.598076" fill="rgb(4,10,14)" />
<circle cx="107.58781" cy="268.5307" r="3.598076" fill="rgb(4,10,14)" />
<circle cx="240.98578" cy="212.53705" r="3.1213202" fill="rgb(3,9,12)" />
<circle cx="204.1399" cy="285.63748" r="3.1213202" fill="rgb(3,9,12)" />
<circle cx="250.25491" cy="171.24771" r="2.5" fill="rgb(2,7,9)" />
</svg>
