<?xml version="1.0" encoding="UTF-8" standalone="no"?>
<!DOCTYPE svg PUBLIC "-//W3C//DTD SVG 1.1//EN" "http://www.w3.org/Graphics/SVG/1.1/DTD/svg11.dtd">
<svg width="350" height="350" viewBox="0 0 350 350" version="1.1" xmlns="http://www.w3.org/2000/svg">
<rect x="0" y="0" width="350" height="350" style="fill:black;"/>
<circle cx="30.32402" cy="82.07743" r="90.1" fill="rgb(16,12,65)" />
<circle cx="35.57857" cy="120.572876" r="53.0" fill="rgb(211,222,245)" />
<circle cx="41.74363" cy="177.12323" r="50.0" fill="rgb(211,22,245)" />
<circle cx="48.97697" cy="260.1965" r="45.9" fill="rgb(2,22,45)" />
<circle cx="57.463703" cy="382.23227" r="45.0" fill="rgb(2,22,45)" />
<circle cx="67.42102" cy="561.5045" r="30.3" fill="rgb(51,102,255)" />
<circle cx="79.103745" cy="824.8579" r="28.5" fill="rgb(51,102,255)" />
<circle cx="92.810844" cy="1211.7278" r="27.4" fill="rgb(51,102,255)" />
<circle cx="108.89312" cy="1780.0449" r="27.1" fill="rgb(51,102,255)" />
<circle cx="127.76214" cy="2614.911" r="26.0" fill="rgb(15,202,55)" />
<circle cx="149.90077" cy="3841.3403" r="24.3" fill="rgb(15,202,55)" />
<circle cx="175.8756" cy="5642.9824" r="21.0" fill="rgb(2,22,45)" />
<circle cx="206.35135" cy="8289.619" r="20.8" fill="rgb(2,22,45)" />
<circle cx="242.10793" cy="12177.565" r="18.7" fill="rgb(2,22,45)" />
<circle cx="284.06042" cy="17889.014" r="17.9" fill="rgb(2,22,45)" />
<circle cx="333.28244" cy="26279.209" r="16.9" fill="rgb(0,252,177)" />
<circle cx="391.03366" cy="38604.523" r="16.1" fill="rgb(0,252,177)" />
<circle cx="458.79202" cy="56710.582" r="15.7" fill="rgb(0,252,177)" />
<circle cx="538.29156" cy="83308.63" r="15.1" fill="rgb(0,252,177)" />
<circle cx="631.5668" cy="122381.53" r="14.2" fill="rgb(0,252,177)" />
<circle cx="741.00476" cy="179780.17" r="14.2" fill="rgb(0,252,177)" />
<circle cx="869.4062" cy="264099.56" r="13.3" fill="rgb(0,252,177)" />
<circle cx="1020.057" cy="387965.94" r="12.5" fill="rgb(0,252,177)" />
<circle cx="1196.8126" cy="569927.4" r="11.3" fill="rgb(22,156,45)" />
<circle cx="1404.1964" cy="837231.2" r="11.2" fill="rgb(22,156,45)" />
<circle cx="1647.5157" cy="1229904.3" r="11.0" fill="rgb(22,156,45)" />
<circle cx="1932.9974" cy="1806746.4" r="11.0" fill="rgb(22,156,45)" />
<circle cx="2267.9475" cy="2654135.5" r="10.4" fill="rgb(22,156,45)" />
<circle cx="2660.9375" cy="3898961.8" r="9.9" fill="rgb(22,156,45)" />
<circle cx="3122.0251" cy="5727629.0" r="9.7" fill="rgb(22,156,45)" />
<circle cx="3663.01" cy="8413966.0" r="9.3" fill="rgb(22,156,45)" />
<circle cx="4297.737" cy="12360233.0" r="9.0" fill="rgb(22,156,45)" />
<circle cx="5042.449" cy="18157354.0" r="8.9" fill="rgb(22,156,45)" />
<circle cx="5916.2056" cy="26673404.0" r="8.6" fill="rgb(22,156,45)" />
<circle cx="6941.3667" cy="39183604.0" r="8.5" fill="rgb(22,156,45)" />
<circle cx="8144.1675" cy="57561256.0" r="8.4" fill="rgb(22,156,45)" />
<circle cx="9555.39" cy="84558280.0" r="8.4" fill="rgb(22,156,45)" />
<circle cx="11211.149" cy="124217280.0" r="8.4" fill="rgb(22,156,45)" />
<circle cx="13153.818" cy="182476910.0" r="8.2" fill="rgb(22,156,45)" />
<circle cx="15433.114" cy="268061100.0" r="8.1" fill="rgb(22,156,45)" />
<circle cx="18107.367" cy="393785470.0" r="8.1" fill="rgb(22,156,45)" />
<circle cx="21245.014" cy="578476350.0" r="8.0" fill="rgb(22,156,45)" />
<circle cx="24926.352" cy="849789760.0" r="7.9" fill="rgb(22,156,45)" />
<circle cx="29245.59" cy="1248352900.0" r="7.9" fill="rgb(22,156,45)" />
<circle cx="34313.27" cy="1833847700.0" r="7.8" fill="rgb(22,156,45)" />
<circle cx="40259.08" cy="2693947600.0" r="7.7" fill="rgb(22,156,45)" />
<circle cx="47235.176" cy="3957446700.0" r="7.5" fill="rgb(22,156,45)" />
<circle cx="55420.094" cy="5813544000.0" r="7.3" fill="rgb(22,156,45)" />
<circle cx="65023.293" cy="8540176400.0" r="7.3" fill="rgb(22,156,45)" />
<circle cx="76290.54" cy="12545637000.0" r="7.3" fill="rgb(22,156,45)" />
<circle cx="89510.17" cy="18429716000.0" r="7.3" fill="rgb(22,156,45)" />
<circle cx="105020.5" cy="27073507000.0" r="7.3" fill="rgb(22,156,45)" />
<circle cx="123218.46" cy="39771360000.0" r="7.2" fill="rgb(22,156,45)" />
<circle cx="144569.77" cy="58424676000.0" r="7.1" fill="rgb(22,156,45)" />
<circle cx="169620.83" cy="85826660000.0" r="7.1" fill="rgb(22,156,45)" />
<circle cx="199012.77" cy="126080550000.0" r="7.1" fill="rgb(22,156,45)" />
<circle cx="233497.72" cy="185214070000.0" r="7.1" fill="rgb(22,156,45)" />
<circle cx="273958.22" cy="272082030000.0" r="7.0" fill="rgb(22,156,45)" />
<circle cx="321429.75" cy="399692270000.0" r="7.0" fill="rgb(22,156,45)" />
<circle cx="377127.13" cy="587153500000.0" r="6.8" fill="rgb(22,156,45)" />
<circle cx="442475.72" cy="862536660000.0" r="6.7" fill="rgb(22,156,45)" />
<circle cx="519147.97" cy="1267078300000.0" r="6.7" fill="rgb(22,156,45)" />
<circle cx="609106.0" cy="1861355600000.0" r="6.6" fill="rgb(22,156,45)" />
<circle cx="714651.94" cy="2734357200000.0" r="6.6" fill="rgb(22,156,45)" />
<circle cx="838486.9" cy="4016808400000.0" r="6.6" fill="rgb(22,156,45)" />
<circle cx="983780.06" cy="5900747000000.0" r="6.6" fill="rgb(22,156,45)" />
<circle cx="1154249.5" cy="8668279500000.0" r="6.5" fill="rgb(22,156,45)" />
<circle cx="1354258.0" cy="12733823000000.0" r="6.5" fill="rgb(22,156,45)" />
<circle cx="1588924.0" cy="18706164000000.0" r="6.4" fill="rgb(22,156,45)" />
<circle cx="1864252.9" cy="27479614000000.0" r="6.3" fill="rgb(22,156,45)" />
<circle cx="2187290.8" cy="40367936000000.0" r="6.3" fill="rgb(22,156,45)" />
<circle cx="2566305.0" cy="59301060000000.0" r="6.3" fill="rgb(22,156,45)" />
<circle cx="3010994.5" cy="87114080000000.0" r="6.3" fill="rgb(22,156,45)" />
<circle cx="3532739.8" cy="127971800000000.0" r="6.3" fill="rgb(22,156,45)" />
<circle cx="4144893.5" cy="187992350000000.0" r="6.2" fill="rgb(22,156,45)" />
<circle cx="4863121.0" cy="276163380000000.0" r="6.2" fill="rgb(22,156,45)" />
<circle cx="5705803.0" cy="405687800000000.0" r="6.2" fill="rgb(22,156,45)" />
<circle cx="6694505.5" cy="595961000000000.0" r="6.2" fill="rgb(22,156,45)" />
<circle cx="7854530.0" cy="875475060000000.0" r="6.2" fill="rgb(22,156,45)" />
<circle cx="9215564.0" cy="1286085000000000.0" r="6.1" fill="rgb(22,156,45)" />
<circle cx="10812438.0" cy="1889276700000000.0" r="6.1" fill="rgb(22,156,45)" />
<circle cx="12686018.0" cy="2775373800000000.0" r="6.1" fill="rgb(22,156,45)" />
<circle cx="14884252.0" cy="4077062400000000.0" r="6.1" fill="rgb(22,156,45)" />
<circle cx="17463398.0" cy="5989261000000000.0" r="6.1" fill="rgb(22,156,45)" />
<circle cx="20489458.0" cy="8798307600000000.0" r="6.1" fill="rgb(22,156,45)" />
<circle cx="24039874.0" cy="12924835000000000.0" r="6.1" fill="rgb(22,156,45)" />
<circle cx="28205506.0" cy="18986762000000000.0" r="6.0" fill="rgb(12,222,45)" />
<circle cx="33092960.0" cy="27891816000000000.0" r="6.0" fill="rgb(12,222,45)" />
<circle cx="38827312.0" cy="40973464000000000.0" r="5.9" fill="rgb(12,222,45)" />
<circle cx="45555312.0" cy="60190587000000000.0" r="5.9" fill="rgb(12,222,45)" />
<circle cx="53449144.0" cy="88420810000000000.0" r="5.9" fill="rgb(12,222,45)" />
<circle cx="62710820.0" cy="129891400000000000.0" r="5.8" fill="rgb(12,222,45)" />
<circle cx="73577360.0" cy="190812250000000000.0" r="5.8" fill="rgb(12,222,45)" />
<circle cx="86326850.0" cy="280305850000000000.0" r="5.8" fill="rgb(12,222,45)" />
<circle cx="101285576.0" cy="411773200000000000.0" r="5.8" fill="rgb(12,222,45)" />
<circle cx="118836350.0" cy="604900500000000000.0" r="5.8" fill="rgb(12,222,45)" />
<circle cx="139428320.0" cy="888607300000000000.0" r="5.8" fill="rgb(12,222,45)" />
<circle cx="163588480.0" cy="1305376400000000000.0" r="5.7" fill="rgb(12,222,45)" />
<circle cx="191935100.0" cy="1917616000000000000.0" r="5.7" fill="rgb(12,222,45)" />
<circle cx="225193650.0" cy="2817004600000000000.0" r="5.7" fill="rgb(12,222,45)" />
<circle cx="264215220.0" cy="4138218700000000000.0" r="5.7" fill="rgb(12,222,45)" />
<circle cx="309998460.0" cy="6079101000000000000.0" r="5.7" fill="rgb(12,222,45)" />
<circle cx="363715040.0" cy="8930283500000000000.0" r="5.6" fill="rgb(12,222,45)" />
<circle cx="426739620.0" cy="13118711000000000000.0" r="5.6" fill="rgb(12,222,45)" />
<circle cx="500685120.0" cy="19271570000000000000.0" r="5.6" fill="rgb(12,222,45)" />
<circle cx="587443900.0" cy="28310203000000000000.0" r="5.6" fill="rgb(12,222,45)" />
<circle cx="689236200.0" cy="41588077000000000000.0" r="5.5" fill="rgb(44,122,245)" />
<circle cx="808667260.0" cy="61093460000000000000.0" r="5.5" fill="rgb(44,122,245)" />
<circle cx="948793150.0" cy="89747140000000000000.0" r="5.5" fill="rgb(44,122,245)" />
<circle cx="1113200300.0" cy="131839810000000000000.0" r="5.5" fill="rgb(44,122,245)" />
<circle cx="1306095600.0" cy="193674500000000000000.0" r="5.5" fill="rgb(44,122,245)" />
<circle cx="1532416100.0" cy="284510530000000000000.0" r="5.5" fill="rgb(44,122,245)" />
<circle cx="1797953400.0" cy="417949900000000000000.0" r="5.5" fill="rgb(44,122,245)" />
<circle cx="2109503000.0" cy="613974260000000000000.0" r="5.5" fill="rgb(44,122,245)" />
<circle cx="2475038000.0" cy="901936740000000000000.0" r="5.4" fill="rgb(44,122,245)" />
<circle cx="2903912700.0" cy="1324957600000000000000.0" r="5.4" fill="rgb(44,122,245)" />
<circle cx="3407103200.0" cy="1946381000000000000000.0" r="5.4" fill="rgb(44,122,245)" />
<circle cx="3997486600.0" cy="2859260800000000000000.0" r="5.4" fill="rgb(44,122,245)" />
<circle cx="4690172000.0" cy="4200294000000000000000.0" r="5.4" fill="rgb(44,122,245)" />
<circle cx="5502885400.0" cy="6170290000000000000000.0" r="5.4" fill="rgb(44,122,245)" />
<circle cx="6456426000.0" cy="9064241300000000000000.0" r="5.3" fill="rgb(44,122,245)" />
<circle cx="7575196000.0" cy="13315496000000000000000.0" r="5.3" fill="rgb(44,122,245)" />
<circle cx="8887827000.0" cy="19560649000000000000000.0" r="5.3" fill="rgb(44,122,245)" />
<circle cx="10427911000.0" cy="28734864000000000000000.0" r="5.3" fill="rgb(44,122,245)" />
<circle cx="12234861000.0" cy="42211915000000000000000.0" r="5.2" fill="rgb(44,122,245)" />
<circle cx="14354918000.0" cy="62009888000000000000000.0" r="5.2" fill="rgb(44,122,245)" />
<circle cx="16842340000.0" cy="91093390000000000000000.0" r="5.1" fill="rgb(44,122,245)" />
</svg>
