<?xml version="1.0" encoding="UTF-8" standalone="no"?>
<!DOCTYPE svg PUBLIC "-//W3C//DTD SVG 1.1//EN" "http://www.w3.org/Graphics/SVG/1.1/DTD/svg11.dtd">
<svg width="350" height="350" viewBox="0 0 350 350" version="1.1" xmlns="http://www.w3.org/2000/svg">
<rect x="0" y="0" width="350" height="350" style="fill:black;"/>
<circle cx="0.0" cy="0.0" r="90.1" fill="rgb(16,12,65)" />
<circle cx="240.0" cy="240.0" r="90.1" fill="rgb(16,12,65)" />
<circle cx="225.0" cy="225.0" r="90.1" fill="rgb(16,12,65)" />
<circle cx="204.5" cy="204.5" r="90.1" fill="rgb(16,12,65)" />
<circle cx="200.0" cy="200.0" r="90.1" fill="rgb(16,12,65)" />
<circle cx="126.5" cy="126.5" r="90.1" fill="rgb(16,12,65)" />
<circle cx="117.5" cy="117.5" r="90.1" fill="rgb(16,12,65)" />
<circle cx="112.0" cy="112.0" r="90.1" fill="rgb(16,12,65)" />
<circle cx="110.5" cy="110.5" r="90.1" fill="rgb(16,12,65)" />
<circle cx="105.0" cy="105.0" r="90.1" fill="rgb(16,12,65)" />
<circle cx="96.5" cy="96.5" r="90.1" fill="rgb(16,12,65)" />
<circle cx="80.0" cy="80.0" r="90.1" fill="rgb(16,12,65)" />
<circle cx="79.0" cy="79.0" r="90.1" fill="rgb(16,12,65)" />
<circle cx="68.5" cy="68.5" r="90.1" fill="rgb(16,12,65)" />
<circle cx="64.5" cy="64.5" r="90.1" fill="rgb(16,12,65)" />
<circle cx="59.5" cy="59.5" r="90.1" fill="rgb(16,12,65)" />
<circle cx="55.5" cy="55.5" r="90.1" fill="rgb(16,12,65)" />
<circle cx="53.5" cy="53.5" r="90.1" fill="rgb(16,12,65)" />
<circle cx="50.5" cy="50.5" r="90.1" fill="rgb(16,12,65)" />
<circle cx="46.0" cy="46.0" r="90.1" fill="rgb(16,12,65)" />
<circle cx="46.0" cy="46.0" r="90.1" fill="rgb(16,12,65)" />
<circle cx="41.5" cy="41.5" r="90.1" fill="rgb(16,12,65)" />
<circle cx="37.5" cy="37.5" r="12.5" fill="rgb(0,252,177)" />
<circle cx="31.5" cy="31.5" r="11.3" fill="rgb(222,156,45)" />
<circle cx="31.0" cy="31.0" r="11.2" fill="rgb(222,156,45)" />
<circle cx="30.0" cy="30.0" r="11.0" fill="rgb(222,156,45)" />
<circle cx="30.0" cy="30.0" r="11.0" fill="rgb(222,156,45)" />
<circle cx="27.0" cy="27.0" r="10.4" fill="rgb(222,156,45)" />
<circle cx="24.5" cy="24.5" r="9.9" fill="rgb(222,156,45)" />
<circle cx="23.5" cy="23.5" r="9.7" fill="rgb(222,156,45)" />
<circle cx="21.5" cy="21.5" r="9.3" fill="rgb(222,156,45)" />
<circle cx="20.0" cy="20.0" r="9.0" fill="rgb(222,156,45)" />
<circle cx="19.5" cy="19.5" r="8.9" fill="rgb(222,156,45)" />
<circle cx="18.0" cy="18.0" r="8.6" fill="rgb(222,156,45)" />
<circle cx="17.5" cy="17.5" r="8.5" fill="rgb(222,156,45)" />
<circle cx="17.0" cy="17.0" r="8.4" fill="rgb(222,156,45)" />
<circle cx="17.0" cy="17.0" r="8.4" fill="rgb(222,156,45)" />
<circle cx="17.0" cy="17.0" r="8.4" fill="rgb(222,156,45)" />
<circle cx="16.0" cy="16.0" r="8.2" fill="rgb(222,156,45)" />
<circle cx="15.5" cy="15.5" r="8.1" fill="rgb(222,156,45)" />
<circle cx="15.5" cy="15.5" r="8.1" fill="rgb(222,156,45)" />
<circle cx="15.0" cy="15.0" r="8.0" fill="rgb(222,156,45)" />
<circle cx="14.5" cy="14.5" r="7.9" fill="rgb(222,156,45)" />
<circle cx="14.5" cy="14.5" r="7.9" fill="rgb(222,156,45)" />
<circle cx="14.0" cy="14.0" r="7.8" fill="rgb(222,156,45)" />
<circle cx="13.5" cy="13.5" r="7.7" fill="rgb(222,156,45)" />
<circle cx="12.5" cy="12.5" r="7.5" fill="rgb(222,156,45)" />
<circle cx="11.5" cy="11.5" r="7.3" fill="rgb(222,156,45)" />
<circle cx="11.5" cy="11.5" r="7.3" fill="rgb(222,156,45)" />
<circle cx="11.5" cy="11.5" r="7.3" fill="rgb(222,156,45)" />
<circle cx="11.5" cy="11.5" r="7.3" fill="rgb(222,156,45)" />
<circle cx="11.5" cy="11.5" r="7.3" fill="rgb(222,156,45)" />
<circle cx="11.0" cy="11.0" r="7.2" fill="rgb(222,156,45)" />
<circle cx="10.5" cy="10.5" r="7.1" fill="rgb(222,156,45)" />
<circle cx="10.5" cy="10.5" r="7.1" fill="rgb(222,156,45)" />
<circle cx="10.5" cy="10.5" r="7.1" fill="rgb(222,156,45)" />
<circle cx="10.5" cy="10.5" r="7.1" fill="rgb(222,156,45)" />
<circle cx="10.0" cy="10.0" r="7.0" fill="rgb(222,156,45)" />
<circle cx="10.0" cy="10.0" r="7.0" fill="rgb(222,156,45)" />
<circle cx="9.0" cy="9.0" r="6.8" fill="rgb(222,156,45)" />
<circle cx="8.5" cy="8.5" r="6.7" fill="rgb(222,156,45)" />
<circle cx="8.5" cy="8.5" r="6.7" fill="rgb(222,156,45)" />
<circle cx="8.0" cy="8.0" r="6.6" fill="rgb(222,156,45)" />
<circle cx="8.0" cy="8.0" r="6.6" fill="rgb(222,156,45)" />
<circle cx="8.0" cy="8.0" r="6.6" fill="rgb(222,156,45)" />
<circle cx="8.0" cy="8.0" r="6.6" fill="rgb(222,156,45)" />
<circle cx="7.5" cy="7.5" r="6.5" fill="rgb(222,156,45)" />
<circle cx="7.5" cy="7.5" r="6.5" fill="rgb(222,156,45)" />
<circle cx="7.0" cy="7.0" r="6.4" fill="rgb(222,156,45)" />
<circle cx="6.5" cy="6.5" r="6.3" fill="rgb(222,156,45)" />
<circle cx="6.5" cy="6.5" r="6.3" fill="rgb(222,156,45)" />
<circle cx="6.5" cy="6.5" r="6.3" fill="rgb(222,156,45)" />
<circle cx="6.5" cy="6.5" r="6.3" fill="rgb(222,156,45)" />
<circle cx="6.5" cy="6.5" r="6.3" fill="rgb(222,156,45)" />
<circle cx="6.0" cy="6.0" r="6.2" fill="rgb(222,156,45)" />
<circle cx="6.0" cy="6.0" r="6.2" fill="rgb(222,156,45)" />
<circle cx="6.0" cy="6.0" r="6.2" fill="rgb(222,156,45)" />
<circle cx="6.0" cy="6.0" r="6.2" fill="rgb(222,156,45)" />
<circle cx="6.0" cy="6.0" r="6.2" fill="rgb(222,156,45)" />
<circle cx="5.5" cy="5.5" r="6.1" fill="rgb(222,156,45)" />
<circle cx="5.5" cy="5.5" r="6.1" fill="rgb(222,156,45)" />
<circle cx="5.5" cy="5.5" r="6.1" fill="rgb(222,156,45)" />
<circle cx="5.5" cy="5.5" r="6.1" fill="rgb(222,156,45)" />
<circle cx="5.5" cy="5.5" r="6.1" fill="rgb(222,156,45)" />
<circle cx="5.5" cy="5.5" r="6.1" fill="rgb(222,156,45)" />
<circle cx="5.5" cy="5.5" r="6.1" fill="rgb(222,156,45)" />
<circle cx="5.0" cy="5.0" r="6.0" fill="rgb(12,222,45)" />
<circle cx="5.0" cy="5.0" r="6.0" fill="rgb(12,222,45)" />
<circle cx="4.5" cy="4.5" r="5.9" fill="rgb(12,222,45)" />
<circle cx="4.5" cy="4.5" r="5.9" fill="rgb(12,222,45)" />
<circle cx="4.5" cy="4.5" r="5.9" fill="rgb(12,222,45)" />
<circle cx="4.0" cy="4.0" r="5.8" fill="rgb(12,222,45)" />
<circle cx="4.0" cy="4.0" r="5.8" fill="rgb(12,222,45)" />
<circle cx="4.0" cy="4.0" r="5.8" fill="rgb(12,222,45)" />
<circle cx="4.0" cy="4.0" r="5.8" fill="rgb(12,222,45)" />
<circle cx="4.0" cy="4.0" r="5.8" fill="rgb(12,222,45)" />
<circle cx="4.0" cy="4.0" r="5.8" fill="rgb(12,222,45)" />
<circle cx="3.5" cy="3.5" r="5.7" fill="rgb(12,222,45)" />
<circle cx="3.5" cy="3.5" r="5.7" fill="rgb(12,222,45)" />
<circle cx="3.5" cy="3.5" r="5.7" fill="rgb(12,222,45)" />
<circle cx="3.5" cy="3.5" r="5.7" fill="rgb(12,222,45)" />
<circle cx="3.5" cy="3.5" r="5.7" fill="rgb(12,222,45)" />
<circle cx="3.0" cy="3.0" r="5.6" fill="rgb(12,222,45)" />
<circle cx="3.0" cy="3.0" r="5.6" fill="rgb(12,222,45)" />
<circle cx="3.0" cy="3.0" r="5.6" fill="rgb(12,222,45)" />
<circle cx="3.0" cy="3.0" r="5.6" fill="rgb(12,222,45)" />
<circle cx="2.5" cy="2.5" r="5.5" fill="rgb(44,122,245)" />
<circle cx="2.5" cy="2.5" r="5.5" fill="rgb(44,122,245)" />
<circle cx="2.5" cy="2.5" r="5.5" fill="rgb(44,122,245)" />
<circle cx="2.5" cy="2.5" r="5.5" fill="rgb(44,122,245)" />
<circle cx="2.5" cy="2.5" r="5.5" fill="rgb(44,122,245)" />
<circle cx="2.5" cy="2.5" r="5.5" fill="rgb(44,122,245)" />
<circle cx="2.5" cy="2.5" r="5.5" fill="rgb(44,122,245)" />
<circle cx="2.5" cy="2.5" r="5.5" fill="rgb(44,122,245)" />
<circle cx="2.0" cy="2.0" r="5.4" fill="rgb(44,122,245)" />
<circle cx="2.0" cy="2.0" r="5.4" fill="rgb(44,122,245)" />
<circle cx="2.0" cy="2.0" r="5.4" fill="rgb(44,122,245)" />
<circle cx="2.0" cy="2.0" r="5.4" fill="rgb(44,122,245)" />
<circle cx="2.0" cy="2.0" r="5.4" fill="rgb(44,122,245)" />
<circle cx="2.0" cy="2.0" r="5.4" fill="rgb(44,122,245)" />
<circle cx="1.5" cy="1.5" r="5.3" fill="rgb(44,122,245)" />
<circle cx="1.5" cy="1.5" r="5.3" fill="rgb(44,122,245)" />
<circle cx="1.5" cy="1.5" r="5.3" fill="rgb(44,122,245)" />
<circle cx="1.5" cy="1.5" r="5.3" fill="rgb(44,122,245)" />
<circle cx="1.0" cy="1.0" r="5.2" fill="rgb(44,122,245)" />
<circle cx="1.0" cy="1.0" r="5.2" fill="rgb(44,122,245)" />
<circle cx="0.5" cy="0.5" r="5.1" fill="rgb(44,122,245)" />
</svg>
