<?xml version="1.0" encoding="UTF-8" standalone="no"?>
<!DOCTYPE svg PUBLIC "-//W3C//DTD SVG 1.1//EN" "http://www.w3.org/Graphics/SVG/1.1/DTD/svg11.dtd">
<svg width="350" height="350" viewBox="0 0 350 350" version="1.1" xmlns="http://www.w3.org/2000/svg">
<rect x="0" y="0" width="350" height="350" style="fill:black;"/>
<circle cx="175.0" cy="175.0" r="50.1" fill="rgb(167,212,45)" />
<circle cx="175.0" cy="175.0" r="49.0" fill="rgb(1,222,245)" />
<circle cx="175.0" cy="175.0" r="46.0" fill="rgb(1,222,245)" />
<circle cx="175.0" cy="175.0" r="41.9" fill="rgb(55,122,205)" />
<circle cx="175.0" cy="175.0" r="41.0" fill="rgb(55,122,205)" />
<circle cx="175.0" cy="175.0" r="26.3" fill="rgb(211,222,245)" />
<circle cx="175.0" cy="175.0" r="24.5" fill="rgb(211,22,245)" />
<circle cx="175.0" cy="175.0" r="23.4" fill="rgb(211,22,245)" />
<circle cx="175.0" cy="175.0" r="23.1" fill="rgb(211,22,245)" />
<circle cx="175.0" cy="175.0" r="22.0" fill="rgb(211,22,245)" />
<circle cx="175.0" cy="175.0" r="20.3" fill="rgb(211,22,245)" />
<circle cx="175.0" cy="175.0" r="17.0" fill="rgb(2,22,45)" />
<circle cx="175.0" cy="175.0" r="16.8" fill="rgb(2,22,45)" />
<circle cx="175.0" cy="175.0" r="14.7" fill="rgb(255,152,120)" />
<circle cx="175.0" cy="175.0" r="13.9" fill="rgb(255,152,120)" />
<circle cx="175.0" cy="175.0" r="12.9" fill="rgb(255,102,0)" />
<circle cx="175.0" cy="175.0" r="12.1" fill="rgb(255,102,0)" />
<circle cx="175.0" cy="175.0" r="11.7" fill="rgb(255,102,0)" />
<circle cx="175.0" cy="175.0" r="11.1" fill="rgb(255,102,0)" />
<circle cx="175.0" cy="175.0" r="10.2" fill="rgb(255,102,0)" />
<circle cx="175.0" cy="175.0" r="10.2" fill="rgb(255,102,0)" />
<circle cx="175.0" cy="175.0" r="9.3" fill="rgb(51,102,255)" />
<circle cx="175.0" cy="175.0" r="8.5" fill="rgb(51,102,255)" />
<circle cx="175.0" cy="175.0" r="7.3" fill="rgb(51,102,255)" />
<circle cx="175.0" cy="175.0" r="7.2" fill="rgb(51,102,255)" />
<circle cx="175.0" cy="175.0" r="7.0" fill="rgb(15,202,55)" />
<circle cx="175.0" cy="175.0" r="7.0" fill="rgb(15,202,55)" />
<circle cx="175.0" cy="175.0" r="6.4" fill="rgb(15,202,55)" />
<circle cx="175.0" cy="175.0" r="5.9" fill="rgb(15,202,55)" />
<circle cx="175.0" cy="175.0" r="5.7" fill="rgb(15,202,55)" />
<circle cx="175.0" cy="175.0" r="5.3" fill="rgb(15,202,55)" />
<circle cx="175.0" cy="175.0" r="5.0" fill="rgb(2,22,45)" />
<circle cx="175.0" cy="175.0" r="4.9" fill="rgb(2,22,45)" />
<circle cx="175.0" cy="175.0" r="4.6" fill="rgb(2,22,45)" />
<circle cx="175.0" cy="175.0" r="4.5" fill="rgb(2,22,45)" />
<circle cx="175.0" cy="175.0" r="4.4" fill="rgb(2,22,45)" />
<circle cx="175.0" cy="175.0" r="4.4" fill="rgb(2,22,45)" />
<circle cx="175.0" cy="175.0" r="4.4" fill="rgb(2,22,45)" />
<circle cx="175.0" cy="175.0" r="4.2" fill="rgb(2,22,45)" />
<circle cx="175.0" cy="175.0" r="4.1" fill="rgb(2,22,45)" />
<circle cx="175.0" cy="175.0" r="4.1" fill="rgb(2,22,45)" />
<circle cx="175.0" cy="175.0" r="4.0" fill="rgb(2,22,45)" />
<circle cx="175.0" cy="175.0" r="3.9" fill="rgb(2,22,45)" />
<circle cx="175.0" cy="175.0" r="3.9" fill="rgb(2,22,45)" />
<circle cx="175.0" cy="175.0" r="3.8" fill="rgb(2,22,45)" />
<circle cx="175.0" cy="175.0" r="3.7" fill="rgb(2,22,45)" />
<circle cx="175.0" cy="175.0" r="3.5" fill="rgb(2,22,45)" />
<circle cx="175.0" cy="175.0" r="3.3" fill="rgb(2,22,45)" />
<circle cx="175.0" cy="175.0" r="3.3" fill="rgb(2,22,45)" />
<circle cx="175.0" cy="175.0" r="3.3" fill="rgb(2,22,45)" />
<circle cx="175.0" cy="175.0" r="3.3" fill="rgb(2,22,45)" />
<circle cx="175.0" cy="175.0" r="3.3" fill="rgb(2,22,45)" />
<circle cx="175.0" cy="175.0" r="3.2" fill="rgb(2,22,45)" />
<circle cx="175.0" cy="175.0" r="3.1" fill="rgb(2,22,45)" />
<circle cx="175.0" cy="175.0" r="3.1" fill="rgb(2,22,45)" />
<circle cx="175.0" cy="175.0" r="3.1" fill="rgb(2,22,45)" />
<circle cx="175.0" cy="175.0" r="3.1" fill="rgb(2,22,45)" />
<circle cx="175.0" cy="175.0" r="3.0" fill="rgb(0,252,177)" />
<circle cx="175.0" cy="175.0" r="3.0" fill="rgb(0,252,177)" />
<circle cx="175.0" cy="175.0" r="2.8" fill="rgb(0,252,177)" />
<circle cx="175.0" cy="175.0" r="2.7" fill="rgb(0,252,177)" />
<circle cx="175.0" cy="175.0" r="2.7" fill="rgb(0,252,177)" />
<circle cx="175.0" cy="175.0" r="2.6" fill="rgb(0,252,177)" />
<circle cx="175.0" cy="175.0" r="2.6" fill="rgb(0,252,177)" />
<circle cx="175.0" cy="175.0" r="2.6" fill="rgb(0,252,177)" />
<circle cx="175.0" cy="175.0" r="2.6" fill="rgb(0,252,177)" />
<circle cx="175.0" cy="175.0" r="2.5" fill="rgb(0,252,177)" />
<circle cx="175.0" cy="175.0" r="2.5" fill="rgb(0,252,177)" />
<circle cx="175.0" cy="175.0" r="2.4" fill="rgb(0,252,177)" />
<circle cx="175.0" cy="175.0" r="2.3" fill="rgb(0,252,177)" />
<circle cx="175.0" cy="175.0" r="2.3" fill="rgb(0,252,177)" />
<circle cx="175.0" cy="175.0" r="2.3" fill="rgb(0,252,177)" />
<circle cx="175.0" cy="175.0" r="2.3" fill="rgb(0,252,177)" />
<circle cx="175.0" cy="175.0" r="2.3" fill="rgb(0,252,177)" />
<circle cx="175.0" cy="175.0" r="2.2" fill="rgb(0,252,177)" />
<circle cx="175.0" cy="175.0" r="2.2" fill="rgb(0,252,177)" />
<circle cx="175.0" cy="175.0" r="2.2" fill="rgb(0,252,177)" />
<circle cx="175.0" cy="175.0" r="2.2" fill="rgb(0,252,177)" />
<circle cx="175.0" cy="175.0" r="2.2" fill="rgb(0,252,177)" />
<circle cx="175.0" cy="175.0" r="2.1" fill="rgb(0,252,177)" />
<circle cx="175.0" cy="175.0" r="2.1" fill="rgb(0,252,177)" />
<circle cx="175.0" cy="175.0" r="2.1" fill="rgb(0,252,177)" />
<circle cx="175.0" cy="175.0" r="2.1" fill="rgb(0,252,177)" />
<circle cx="175.0" cy="175.0" r="2.1" fill="rgb(0,252,177)" />
<circle cx="175.0" cy="175.0" r="2.1" fill="rgb(0,252,177)" />
<circle cx="175.0" cy="175.0" r="2.1" fill="rgb(0,252,177)" />
<circle cx="175.0" cy="175.0" r="2.0" fill="rgb(0,252,177)" />
<circle cx="175.0" cy="175.0" r="2.0" fill="rgb(0,252,177)" />
<circle cx="175.0" cy="175.0" r="1.9" fill="rgb(0,252,177)" />
<circle cx="175.0" cy="175.0" r="1.9" fill="rgb(0,252,177)" />
<circle cx="175.0" cy="175.0" r="1.9" fill="rgb(0,252,177)" />
<circle cx="175.0" cy="175.0" r="1.8" fill="rgb(0,252,177)" />
<circle cx="175.0" cy="175.0" r="1.8" fill="rgb(0,252,177)" />
<circle cx="175.0" cy="175.0" r="1.8" fill="rgb(0,252,177)" />
<circle cx="175.0" cy="175.0" r="1.8" fill="rgb(0,252,177)" />
<circle cx="175.0" cy="175.0" r="1.8" fill="rgb(0,252,177)" />
<circle cx="175.0" cy="175.0" r="1.8" fill="rgb(0,252,177)" />
<circle cx="175.0" cy="175.0" r="1.7" fill="rgb(0,252,177)" />
<circle cx="175.0" cy="175.0" r="1.7" fill="rgb(0,252,177)" />
<circle cx="175.0" cy="175.0" r="1.7" fill="rgb(0,252,177)" />
<circle cx="175.0" cy="175.0" r="1.7" fill="rgb(0,252,177)" />
<circle cx="175.0" cy="175.0" r="1.7" fill="rgb(0,252,177)" />
<circle cx="175.0" cy="175.0" r="1.6" fill="rgb(0,252,177)" />
<circle cx="175.0" cy="175.0" r="1.6" fill="rgb(0,252,177)" />
<circle cx="175.0" cy="175.0" r="1.6" fill="rgb(0,252,177)" />
<circle cx="175.0" cy="175.0" r="1.6" fill="rgb(0,252,177)" />
<circle cx="175.0" cy="175.0" r="1.5" fill="rgb(222,156,45)" />
<circle cx="175.0" cy="175.0" r="1.5" fill="rgb(222,156,45)" />
<circle cx="175.0" cy="175.0" r="1.5" fill="rgb(222,156,45)" />
<circle cx="175.0" cy="175.0" r="1.5" fill="rgb(222,156,45)" />
<circle cx="175.0" cy="175.0" r="1.5" fill="rgb(222,156,45)" />
<circle cx="175.0" cy="175.0" r="1.5" fill="rgb(222,156,45)" />
<circle cx="175.0" cy="175.0" r="1.5" fill="rgb(222,156,45)" />
<circle cx="175.0" cy="175.0" r="1.5" fill="rgb(222,156,45)" />
<circle cx="175.0" cy="175.0" r="1.4" fill="rgb(222,156,45)" />
<circle cx="175.0" cy="175.0" r="1.4" fill="rgb(222,156,45)" />
<circle cx="175.0" cy="175.0" r="1.4" fill="rgb(222,156,45)" />
<circle cx="175.0" cy="175.0" r="1.4" fill="rgb(222,156,45)" />
<circle cx="175.0" cy="175.0" r="1.4" fill="rgb(222,156,45)" />
<circle cx="175.0" cy="175.0" r="1.4" fill="rgb(222,156,45)" />
<circle cx="175.0" cy="175.0" r="1.3" fill="rgb(222,156,45)" />
<circle cx="175.0" cy="175.0" r="1.3" fill="rgb(222,156,45)" />
<circle cx="175.0" cy="175.0" r="1.3" fill="rgb(222,156,45)" />
<circle cx="175.0" cy="175.0" r="1.3" fill="rgb(222,156,45)" />
<circle cx="175.0" cy="175.0" r="1.2" fill="rgb(222,156,45)" />
<circle cx="175.0" cy="175.0" r="1.2" fill="rgb(222,156,45)" />
<circle cx="175.0" cy="175.0" r="1.1" fill="rgb(222,156,45)" />
</svg>
