<?xml version="1.0" encoding="UTF-8" standalone="no"?>
<!DOCTYPE svg PUBLIC "-//W3C//DTD SVG 1.1//EN" "http://www.w3.org/Graphics/SVG/1.1/DTD/svg11.dtd">
<svg width="350" height="350" viewBox="0 0 350 350" version="1.1" xmlns="http://www.w3.org/2000/svg">
<rect x="0" y="0" width="350" height="350" style="fill:black;"/>
<circle cx="1206.6357" cy="-482.42142" r="90.1" fill="rgb(16,12,65)" />
<circle cx="-326.90924" cy="255.64693" r="53.0" fill="rgb(167,212,45)" />
<circle cx="-292.0612" cy="-273.3135" r="50.0" fill="rgb(1,222,245)" />
<circle cx="314.7167" cy="212.06993" r="45.9" fill="rgb(1,222,245)" />
<circle cx="-196.98613" cy="-319.09476" r="45.0" fill="rgb(55,122,205)" />
<circle cx="-30.63713" cy="299.93936" r="30.3" fill="rgb(11,22,45)" />
<circle cx="-238.15306" cy="169.82158" r="28.5" fill="rgb(211,222,245)" />
<circle cx="-167.6609" cy="-232.93523" r="27.4" fill="rgb(211,222,245)" />
<circle cx="132.41551" cy="252.93553" r="27.1" fill="rgb(211,222,245)" />
<circle cx="-247.48569" cy="130.96118" r="26.0" fill="rgb(211,222,245)" />
<circle cx="-56.051914" cy="-265.65094" r="24.3" fill="rgb(211,22,245)" />
<circle cx="-248.78548" cy="55.95344" r="21.0" fill="rgb(211,22,245)" />
<circle cx="153.80408" cy="202.13933" r="20.8" fill="rgb(211,22,245)" />
<circle cx="81.36927" cy="-229.50227" r="18.7" fill="rgb(2,22,45)" />
<circle cx="-234.97476" cy="-46.33688" r="17.9" fill="rgb(2,22,45)" />
<circle cx="217.72653" cy="-87.09426" r="16.9" fill="rgb(2,22,45)" />
<circle cx="-115.83647" cy="-199.2791" r="16.1" fill="rgb(2,22,45)" />
<circle cx="224.56512" cy="42.22263" r="15.7" fill="rgb(255,152,120)" />
<circle cx="201.1471" cy="101.931816" r="15.1" fill="rgb(255,152,120)" />
<circle cx="-138.44423" cy="-172.26201" r="14.2" fill="rgb(255,152,120)" />
<circle cx="-138.44423" cy="-172.26201" r="14.2" fill="rgb(255,152,120)" />
<circle cx="54.025436" cy="209.65091" r="13.3" fill="rgb(255,152,120)" />
<circle cx="195.87215" cy="-82.4036" r="12.5" fill="rgb(255,102,0)" />
<circle cx="203.58765" cy="34.558952" r="11.3" fill="rgb(255,102,0)" />
<circle cx="138.74248" cy="-152.27122" r="11.2" fill="rgb(255,102,0)" />
<circle cx="-195.24466" cy="-62.486176" r="11.0" fill="rgb(255,102,0)" />
<circle cx="-195.24466" cy="-62.486176" r="11.0" fill="rgb(255,102,0)" />
<circle cx="-167.52058" cy="-112.8754" r="10.4" fill="rgb(255,102,0)" />
<circle cx="59.968212" cy="-190.27365" r="9.9" fill="rgb(51,102,255)" />
<circle cx="-196.97859" cy="24.529264" r="9.7" fill="rgb(51,102,255)" />
<circle cx="109.079765" cy="-163.44374" r="9.3" fill="rgb(51,102,255)" />
<circle cx="-130.05292" cy="145.29706" r="9.0" fill="rgb(51,102,255)" />
<circle cx="51.86205" cy="187.45819" r="8.9" fill="rgb(51,102,255)" />
<circle cx="-24.696993" cy="-191.41331" r="8.6" fill="rgb(51,102,255)" />
<circle cx="-173.96074" cy="-82.42516" r="8.5" fill="rgb(51,102,255)" />
<circle cx="-162.92549" cy="101.58388" r="8.4" fill="rgb(51,102,255)" />
<circle cx="-162.92549" cy="101.58388" r="8.4" fill="rgb(51,102,255)" />
<circle cx="-162.92549" cy="101.58388" r="8.4" fill="rgb(51,102,255)" />
<circle cx="159.33667" cy="105.3225" r="8.2" fill="rgb(51,102,255)" />
<circle cx="174.25842" cy="-76.96917" r="8.1" fill="rgb(51,102,255)" />
<circle cx="174.25842" cy="-76.96917" r="8.1" fill="rgb(51,102,255)" />
<circle cx="29.307777" cy="-187.72601" r="8.0" fill="rgb(51,102,255)" />
<circle cx="-141.75691" cy="-125.75862" r="7.9" fill="rgb(51,102,255)" />
<circle cx="-141.75691" cy="-125.75862" r="7.9" fill="rgb(51,102,255)" />
<circle cx="-181.93251" cy="51.201195" r="7.8" fill="rgb(51,102,255)" />
<circle cx="-55.068165" cy="180.27687" r="7.7" fill="rgb(51,102,255)" />
<circle cx="185.85052" cy="-24.815954" r="7.5" fill="rgb(51,102,255)" />
<circle cx="-99.37336" cy="-157.82011" r="7.3" fill="rgb(51,102,255)" />
<circle cx="-99.37336" cy="-157.82011" r="7.3" fill="rgb(51,102,255)" />
<circle cx="-99.37336" cy="-157.82011" r="7.3" fill="rgb(51,102,255)" />
<circle cx="-99.37336" cy="-157.82011" r="7.3" fill="rgb(51,102,255)" />
<circle cx="-99.37336" cy="-157.82011" r="7.3" fill="rgb(51,102,255)" />
<circle cx="-185.99272" cy="-1.6463436" r="7.2" fill="rgb(51,102,255)" />
<circle cx="-101.603775" cy="155.19962" r="7.1" fill="rgb(51,102,255)" />
<circle cx="-101.603775" cy="155.19962" r="7.1" fill="rgb(51,102,255)" />
<circle cx="-101.603775" cy="155.19962" r="7.1" fill="rgb(51,102,255)" />
<circle cx="-101.603775" cy="155.19962" r="7.1" fill="rgb(51,102,255)" />
<circle cx="75.495186" cy="168.89488" r="7.0" fill="rgb(15,202,55)" />
<circle cx="75.495186" cy="168.89488" r="7.0" fill="rgb(15,202,55)" />
<circle cx="121.498276" cy="-138.18166" r="6.8" fill="rgb(15,202,55)" />
<circle cx="-50.492474" cy="-176.41644" r="6.7" fill="rgb(15,202,55)" />
<circle cx="-50.492474" cy="-176.41644" r="6.7" fill="rgb(15,202,55)" />
<circle cx="-175.25168" cy="-52.686306" r="6.6" fill="rgb(15,202,55)" />
<circle cx="-175.25168" cy="-52.686306" r="6.6" fill="rgb(15,202,55)" />
<circle cx="-175.25168" cy="-52.686306" r="6.6" fill="rgb(15,202,55)" />
<circle cx="-175.25168" cy="-52.686306" r="6.6" fill="rgb(15,202,55)" />
<circle cx="-138.64304" cy="118.677536" r="6.5" fill="rgb(15,202,55)" />
<circle cx="-138.64304" cy="118.677536" r="6.5" fill="rgb(15,202,55)" />
<circle cx="24.886173" cy="180.29054" r="6.4" fill="rgb(15,202,55)" />
<circle cx="164.7016" cy="76.260315" r="6.3" fill="rgb(15,202,55)" />
<circle cx="164.7016" cy="76.260315" r="6.3" fill="rgb(15,202,55)" />
<circle cx="164.7016" cy="76.260315" r="6.3" fill="rgb(15,202,55)" />
<circle cx="164.7016" cy="76.260315" r="6.3" fill="rgb(15,202,55)" />
<circle cx="164.7016" cy="76.260315" r="6.3" fill="rgb(15,202,55)" />
<circle cx="152.73756" cy="-97.1197" r="6.2" fill="rgb(15,202,55)" />
<circle cx="152.73756" cy="-97.1197" r="6.2" fill="rgb(15,202,55)" />
<circle cx="152.73756" cy="-97.1197" r="6.2" fill="rgb(15,202,55)" />
<circle cx="152.73756" cy="-97.1197" r="6.2" fill="rgb(15,202,55)" />
<circle cx="152.73756" cy="-97.1197" r="6.2" fill="rgb(15,202,55)" />
<circle cx="0.7988385" cy="-180.49823" r="6.1" fill="rgb(15,202,55)" />
<circle cx="0.7988385" cy="-180.49823" r="6.1" fill="rgb(15,202,55)" />
<circle cx="0.7988385" cy="-180.49823" r="6.1" fill="rgb(15,202,55)" />
<circle cx="0.7988385" cy="-180.49823" r="6.1" fill="rgb(15,202,55)" />
<circle cx="0.7988385" cy="-180.49823" r="6.1" fill="rgb(15,202,55)" />
<circle cx="0.7988385" cy="-180.49823" r="6.1" fill="rgb(15,202,55)" />
<circle cx="0.7988385" cy="-180.49823" r="6.1" fill="rgb(15,202,55)" />
<circle cx="-151.03287" cy="-97.923805" r="6.0" fill="rgb(15,202,55)" />
<circle cx="-151.03287" cy="-97.923805" r="6.0" fill="rgb(15,202,55)" />
<circle cx="-163.54788" cy="73.97527" r="5.9" fill="rgb(15,202,55)" />
<circle cx="-163.54788" cy="73.97527" r="5.9" fill="rgb(15,202,55)" />
<circle cx="-163.54788" cy="73.97527" r="5.9" fill="rgb(15,202,55)" />
<circle cx="-26.044506" cy="177.09512" r="5.8" fill="rgb(15,202,55)" />
<circle cx="-26.044506" cy="177.09512" r="5.8" fill="rgb(15,202,55)" />
<circle cx="-26.044506" cy="177.09512" r="5.8" fill="rgb(15,202,55)" />
<circle cx="-26.044506" cy="177.09512" r="5.8" fill="rgb(15,202,55)" />
<circle cx="-26.044506" cy="177.09512" r="5.8" fill="rgb(15,202,55)" />
<circle cx="-26.044506" cy="177.09512" r="5.8" fill="rgb(15,202,55)" />
<circle cx="134.57155" cy="117.27211" r="5.7" fill="rgb(15,202,55)" />
<circle cx="134.57155" cy="117.27211" r="5.7" fill="rgb(15,202,55)" />
<circle cx="134.57155" cy="117.27211" r="5.7" fill="rgb(15,202,55)" />
<circle cx="134.57155" cy="117.27211" r="5.7" fill="rgb(15,202,55)" />
<circle cx="134.57155" cy="117.27211" r="5.7" fill="rgb(15,202,55)" />
<circle cx="170.91031" cy="-49.73596" r="5.6" fill="rgb(15,202,55)" />
<circle cx="170.91031" cy="-49.73596" r="5.6" fill="rgb(15,202,55)" />
<circle cx="170.91031" cy="-49.73596" r="5.6" fill="rgb(15,202,55)" />
<circle cx="170.91031" cy="-49.73596" r="5.6" fill="rgb(15,202,55)" />
<circle cx="50.35004" cy="-170.20906" r="5.5" fill="rgb(15,202,55)" />
<circle cx="50.35004" cy="-170.20906" r="5.5" fill="rgb(15,202,55)" />
<circle cx="50.35004" cy="-170.20906" r="5.5" fill="rgb(15,202,55)" />
<circle cx="50.35004" cy="-170.20906" r="5.5" fill="rgb(15,202,55)" />
<circle cx="50.35004" cy="-170.20906" r="5.5" fill="rgb(15,202,55)" />
<circle cx="50.35004" cy="-170.20906" r="5.5" fill="rgb(15,202,55)" />
<circle cx="50.35004" cy="-170.20906" r="5.5" fill="rgb(15,202,55)" />
<circle cx="50.35004" cy="-170.20906" r="5.5" fill="rgb(15,202,55)" />
<circle cx="-115.694916" cy="-133.95404" r="5.4" fill="rgb(15,202,55)" />
<circle cx="-115.694916" cy="-133.95404" r="5.4" fill="rgb(15,202,55)" />
<circle cx="-115.694916" cy="-133.95404" r="5.4" fill="rgb(15,202,55)" />
<circle cx="-115.694916" cy="-133.95404" r="5.4" fill="rgb(15,202,55)" />
<circle cx="-115.694916" cy="-133.95404" r="5.4" fill="rgb(15,202,55)" />
<circle cx="-115.694916" cy="-133.95404" r="5.4" fill="rgb(15,202,55)" />
<circle cx="-174.73367" cy="24.90768" r="5.3" fill="rgb(15,202,55)" />
<circle cx="-174.73367" cy="24.90768" r="5.3" fill="rgb(15,202,55)" />
<circle cx="-174.73367" cy="24.90768" r="5.3" fill="rgb(15,202,55)" />
<circle cx="-174.73367" cy="24.90768" r="5.3" fill="rgb(15,202,55)" />
<circle cx="-73.241844" cy="160.03635" r="5.2" fill="rgb(15,202,55)" />
<circle cx="-73.241844" cy="160.03635" r="5.2" fill="rgb(15,202,55)" />
<circle cx="94.82305" cy="147.67815" r="5.1" fill="rgb(15,202,55)" />
</svg>
